999
Dxf file generated by netDxf, Copyright(C) 2009 Daniel Carvajal, Licensed under LGPL
0
SECTION
2
HEADER
9
$ACADVER
1
AC1015
9
$HANDSEED
5
2f6
0
ENDSEC
0
SECTION
2
TABLES
0
TABLE
2
VPORT
5
10
100
AcDbSymbolTable
0
VPORT
5
64
100
AcDbSymbolTableRecord
100
AcDbViewportTableRecord
2
*Active
70
0
10
0
20
0
11
1
21
1
12
-1
22
1
13
0
23
0
14
0.5
24
0.5
15
10
25
10
16
0
26
0
36
1
17
0
27
0
37
0
0
ENDTAB
0
TABLE
2
LTYPE
5
11
100
AcDbSymbolTable
0
LTYPE
5
70
100
AcDbSymbolTableRecord
100
AcDbLinetypeTableRecord
70
0
2
Continuous
3
Solid line
72
65
73
0
40
0
0
LTYPE
5
71
100
AcDbSymbolTableRecord
100
AcDbLinetypeTableRecord
70
0
2
ByLayer
3

72
65
73
0
40
0
0
LTYPE
5
72
100
AcDbSymbolTableRecord
100
AcDbLinetypeTableRecord
70
0
2
ByBlock
3

72
65
73
0
40
0
0
ENDTAB
0
TABLE
2
LAYER
5
12
100
AcDbSymbolTable
0
LAYER
5
66
100
AcDbSymbolTableRecord
100
AcDbLayerTableRecord
70
0
2
outerline
62
7
6
Continuous
390
65
0
LAYER
5
67
100
AcDbSymbolTableRecord
100
AcDbLayerTableRecord
70
0
2
text
62
7
6
Continuous
390
65
0
LAYER
5
68
100
AcDbSymbolTableRecord
100
AcDbLayerTableRecord
70
0
2
line
62
7
6
Continuous
390
65
0
LAYER
5
69
100
AcDbSymbolTableRecord
100
AcDbLayerTableRecord
70
0
2
DoorRectangleLayer
62
7
6
Continuous
390
65
0
LAYER
5
6a
100
AcDbSymbolTableRecord
100
AcDbLayerTableRecord
70
0
2
dimensionLayer
62
7
6
Continuous
390
65
0
LAYER
5
6b
100
AcDbSymbolTableRecord
100
AcDbLayerTableRecord
70
0
2
DoorBarRectangle
62
7
6
Continuous
390
65
0
LAYER
5
6c
100
AcDbSymbolTableRecord
100
AcDbLayerTableRecord
70
0
2
RepresentDoorBarRectangle
62
7
6
Continuous
390
65
0
LAYER
5
6d
100
AcDbSymbolTableRecord
100
AcDbLayerTableRecord
70
0
2
nonDoorBarLayer
62
7
6
Continuous
390
65
0
LAYER
5
6e
100
AcDbSymbolTableRecord
100
AcDbLayerTableRecord
70
0
2
DoubleDoorBarRectangle
62
7
6
Continuous
390
65
0
LAYER
5
6f
100
AcDbSymbolTableRecord
100
AcDbLayerTableRecord
70
0
2
0
62
7
6
Continuous
390
65
0
ENDTAB
0
TABLE
2
STYLE
5
13
100
AcDbSymbolTable
0
STYLE
5
73
100
AcDbSymbolTableRecord
100
AcDbTextStyleTableRecord
2
True type font
3
Arial.ttf
70
0
71
0
40
0
41
1
42
0
50
0
0
STYLE
5
74
100
AcDbSymbolTableRecord
100
AcDbTextStyleTableRecord
2
Standard
3
simplex
70
0
71
0
40
0
41
1
42
0
50
0
0
ENDTAB
0
TABLE
2
VIEW
5
14
100
AcDbSymbolTable
0
ENDTAB
0
TABLE
2
UCS
5
15
100
AcDbSymbolTable
0
ENDTAB
0
TABLE
2
APPID
5
16
100
AcDbSymbolTable
0
APPID
5
7b
100
AcDbSymbolTableRecord
100
AcDbRegAppTableRecord
2
ACAD
70
0
0
ENDTAB
0
TABLE
2
DIMSTYLE
5
17
100
AcDbSymbolTable
100
AcDbDimStyleTable
0
DIMSTYLE
105
7c
100
AcDbSymbolTableRecord
100
AcDbDimStyleTableRecord
2
Standard
70
0
0
ENDTAB
0
TABLE
2
BLOCK_RECORD
5
18
100
AcDbSymbolTable
0
BLOCK_RECORD
5
75
100
AcDbSymbolTableRecord
100
AcDbBlockTableRecord
2
*Model_Space
0
BLOCK_RECORD
5
78
100
AcDbSymbolTableRecord
100
AcDbBlockTableRecord
2
*Paper_Space
0
ENDTAB
0
ENDSEC
0
SECTION
2
BLOCKS
0
BLOCK
5
77
100
AcDbEntity
8
0
100
AcDbBlockBegin
2
*Model_Space
70
0
10
0
20
0
30
0
3
*Model_Space
0
ENDBLK
5
76
100
AcDbEntity
8
0
100
AcDbBlockEnd
0
BLOCK
5
7a
100
AcDbEntity
8
0
100
AcDbBlockBegin
2
*Paper_Space
70
0
10
0
20
0
30
0
3
*Paper_Space
0
ENDBLK
5
79
100
AcDbEntity
8
0
100
AcDbBlockEnd
0
ENDSEC
0
SECTION
2
ENTITIES
0
ARC
5
7d
100
AcDbEntity
8
line
62
256
6
ByLayer
100
AcDbCircle
39
0
10
616
20
390.25
30
0
40
0.25
210
0
220
0
230
1
100
AcDbArc
50
186
51
354
0
ARC
5
7e
100
AcDbEntity
8
line
62
256
6
ByLayer
100
AcDbCircle
39
0
10
616
20
391.75
30
0
40
0.4
210
0
220
0
230
1
100
AcDbArc
50
-6
51
186
0
ARC
5
7f
100
AcDbEntity
8
line
62
256
6
ByLayer
100
AcDbCircle
39
0
10
616
20
391.75
30
0
40
0.5
210
0
220
0
230
1
100
AcDbArc
50
-43
51
223
0
ARC
5
80
100
AcDbEntity
8
line
62
256
6
ByLayer
100
AcDbCircle
39
0
10
616
20
370.25
30
0
40
0.25
210
0
220
0
230
1
100
AcDbArc
50
186
51
354
0
ARC
5
81
100
AcDbEntity
8
line
62
256
6
ByLayer
100
AcDbCircle
39
0
10
616
20
371.75
30
0
40
0.4
210
0
220
0
230
1
100
AcDbArc
50
-6
51
186
0
ARC
5
82
100
AcDbEntity
8
line
62
256
6
ByLayer
100
AcDbCircle
39
0
10
616
20
371.75
30
0
40
0.5
210
0
220
0
230
1
100
AcDbArc
50
-43
51
223
0
CIRCLE
5
2ab
100
AcDbEntity
8
line
62
256
6
Continuous
100
AcDbCircle
10
616
20
391.75
30
0
40
0.35
39
0
210
0
220
0
230
1
0
CIRCLE
5
2ac
100
AcDbEntity
8
line
62
256
6
Continuous
100
AcDbCircle
10
616
20
371.75
30
0
40
0.35
39
0
210
0
220
0
230
1
0
LINE
100
AcDbEntity
8
outerline
62
256
6
ByLayer
5
83
100
AcDbLine
10
500
20
500
30
0
11
500
21
312
31
0
39
0
210
0
220
0
230
1
0
LINE
100
AcDbEntity
8
outerline
62
256
6
ByLayer
5
84
100
AcDbLine
10
500
20
312
30
0
11
806
21
312
31
0
39
0
210
0
220
0
230
1
0
LINE
100
AcDbEntity
8
outerline
62
256
6
ByLayer
5
85
100
AcDbLine
10
806
20
312
30
0
11
806
21
500
31
0
39
0
210
0
220
0
230
1
0
LINE
100
AcDbEntity
8
outerline
62
256
6
ByLayer
5
86
100
AcDbLine
10
500
20
500
30
0
11
806
21
500
31
0
39
0
210
0
220
0
230
1
0
LINE
100
AcDbEntity
8
line
62
256
6
ByLayer
5
87
100
AcDbLine
10
500
20
336
30
0
11
584
21
336
31
0
39
0
210
0
220
0
230
1
0
LINE
100
AcDbEntity
8
line
62
256
6
ByLayer
5
88
100
AcDbLine
10
500
20
342
30
0
11
584
21
342
31
0
39
0
210
0
220
0
230
1
0
LINE
100
AcDbEntity
8
line
62
256
6
ByLayer
5
89
100
AcDbLine
10
500
20
348
30
0
11
584
21
348
31
0
39
0
210
0
220
0
230
1
0
LINE
100
AcDbEntity
8
line
62
256
6
ByLayer
5
8a
100
AcDbLine
10
500
20
354
30
0
11
584
21
354
31
0
39
0
210
0
220
0
230
1
0
LINE
100
AcDbEntity
8
line
62
256
6
ByLayer
5
8b
100
AcDbLine
10
500
20
354
30
0
11
500
21
336
31
0
39
0
210
0
220
0
230
1
0
LINE
100
AcDbEntity
8
line
62
256
6
ByLayer
5
8c
100
AcDbLine
10
530
20
336
30
0
11
530
21
354
31
0
39
0
210
0
220
0
230
1
0
LINE
100
AcDbEntity
8
line
62
256
6
ByLayer
5
8d
100
AcDbLine
10
554
20
336
30
0
11
554
21
354
31
0
39
0
210
0
220
0
230
1
0
LINE
100
AcDbEntity
8
line
62
256
6
ByLayer
5
8e
100
AcDbLine
10
584
20
336
30
0
11
584
21
354
31
0
39
0
210
0
220
0
230
1
0
LINE
100
AcDbEntity
8
line
62
256
6
ByLayer
5
8f
100
AcDbLine
10
500
20
312
30
0
11
806
21
312
31
0
39
0
210
0
220
0
230
1
0
LINE
100
AcDbEntity
8
line
62
256
6
ByLayer
5
90
100
AcDbLine
10
500
20
318
30
0
11
806
21
318
31
0
39
0
210
0
220
0
230
1
0
LINE
100
AcDbEntity
8
line
62
256
6
ByLayer
5
91
100
AcDbLine
10
576.5
20
324
30
0
11
806
21
324
31
0
39
0
210
0
220
0
230
1
0
LINE
100
AcDbEntity
8
line
62
256
6
ByLayer
5
92
100
AcDbLine
10
500
20
336
30
0
11
806
21
336
31
0
39
0
210
0
220
0
230
1
0
LINE
100
AcDbEntity
8
line
62
256
6
ByLayer
5
93
100
AcDbLine
10
500
20
336
30
0
11
500
21
312
31
0
39
0
210
0
220
0
230
1
0
LINE
100
AcDbEntity
8
line
62
256
6
ByLayer
5
94
100
AcDbLine
10
576.5
20
336
30
0
11
576.5
21
312
31
0
39
0
210
0
220
0
230
1
0
LINE
100
AcDbEntity
8
line
62
256
6
ByLayer
5
95
100
AcDbLine
10
653
20
324
30
0
11
653
21
312
31
0
39
0
210
0
220
0
230
1
0
LINE
100
AcDbEntity
8
line
62
256
6
ByLayer
5
96
100
AcDbLine
10
729.5
20
336
30
0
11
729.5
21
312
31
0
39
0
210
0
220
0
230
1
0
LINE
100
AcDbEntity
8
line
62
256
6
ByLayer
5
97
100
AcDbLine
10
767.75
20
324
30
0
11
767.75
21
318
31
0
39
0
210
0
220
0
230
1
0
LINE
100
AcDbEntity
8
line
62
256
6
ByLayer
5
98
100
AcDbLine
10
806
20
336
30
0
11
806
21
312
31
0
39
0
210
0
220
0
230
1
0
LINE
100
AcDbEntity
8
DoorRectangleLayer
62
256
6
ByLayer
5
99
100
AcDbLine
10
602
20
429.5
30
0
11
620
21
429.5
31
0
39
0
210
0
220
0
230
1
0
LINE
100
AcDbEntity
8
DoorRectangleLayer
62
256
6
ByLayer
5
9a
100
AcDbLine
10
602
20
429.5
30
0
11
602
21
479.5
31
0
39
0
210
0
220
0
230
1
0
LINE
100
AcDbEntity
8
DoorRectangleLayer
62
256
6
ByLayer
5
9b
100
AcDbLine
10
602
20
479.5
30
0
11
620
21
479.5
31
0
39
0
210
0
220
0
230
1
0
LINE
100
AcDbEntity
8
DoorRectangleLayer
62
256
6
ByLayer
5
9c
100
AcDbLine
10
620
20
479.5
30
0
11
620
21
429.5
31
0
39
0
210
0
220
0
230
1
0
LINE
100
AcDbEntity
8
DoorRectangleLayer
62
256
6
ByLayer
5
9d
100
AcDbLine
10
602
20
479.5
30
0
11
602.86
21
479.5
31
0
39
0
210
0
220
0
230
1
0
LINE
100
AcDbEntity
8
DoorRectangleLayer
62
256
6
ByLayer
5
9e
100
AcDbLine
10
602
20
479.5
30
0
11
602
21
482.36
31
0
39
0
210
0
220
0
230
1
0
LINE
100
AcDbEntity
8
DoorRectangleLayer
62
256
6
ByLayer
5
9f
100
AcDbLine
10
602
20
482.36
30
0
11
602.86
21
482.36
31
0
39
0
210
0
220
0
230
1
0
LINE
100
AcDbEntity
8
DoorRectangleLayer
62
256
6
ByLayer
5
a0
100
AcDbLine
10
602.86
20
482.36
30
0
11
602.86
21
479.5
31
0
39
0
210
0
220
0
230
1
0
LINE
100
AcDbEntity
8
DoorRectangleLayer
62
256
6
ByLayer
5
a1
100
AcDbLine
10
619.14
20
479.5
30
0
11
620
21
479.5
31
0
39
0
210
0
220
0
230
1
0
LINE
100
AcDbEntity
8
DoorRectangleLayer
62
256
6
ByLayer
5
a2
100
AcDbLine
10
619.14
20
479.5
30
0
11
619.14
21
482.36
31
0
39
0
210
0
220
0
230
1
0
LINE
100
AcDbEntity
8
DoorRectangleLayer
62
256
6
ByLayer
5
a3
100
AcDbLine
10
619.14
20
482.36
30
0
11
620
21
482.36
31
0
39
0
210
0
220
0
230
1
0
LINE
100
AcDbEntity
8
DoorRectangleLayer
62
256
6
ByLayer
5
a4
100
AcDbLine
10
620
20
482.36
30
0
11
620
21
479.5
31
0
39
0
210
0
220
0
230
1
0
LINE
100
AcDbEntity
8
DoorRectangleLayer
62
256
6
ByLayer
5
a5
100
AcDbLine
10
602
20
426.64
30
0
11
602.86
21
426.64
31
0
39
0
210
0
220
0
230
1
0
LINE
100
AcDbEntity
8
DoorRectangleLayer
62
256
6
ByLayer
5
a6
100
AcDbLine
10
602
20
426.64
30
0
11
602
21
429.5
31
0
39
0
210
0
220
0
230
1
0
LINE
100
AcDbEntity
8
DoorRectangleLayer
62
256
6
ByLayer
5
a7
100
AcDbLine
10
602
20
429.5
30
0
11
602.86
21
429.5
31
0
39
0
210
0
220
0
230
1
0
LINE
100
AcDbEntity
8
DoorRectangleLayer
62
256
6
ByLayer
5
a8
100
AcDbLine
10
602.86
20
429.5
30
0
11
602.86
21
426.64
31
0
39
0
210
0
220
0
230
1
0
LINE
100
AcDbEntity
8
DoorRectangleLayer
62
256
6
ByLayer
5
a9
100
AcDbLine
10
619.14
20
426.64
30
0
11
620
21
426.64
31
0
39
0
210
0
220
0
230
1
0
LINE
100
AcDbEntity
8
DoorRectangleLayer
62
256
6
ByLayer
5
aa
100
AcDbLine
10
619.14
20
426.64
30
0
11
619.14
21
429.5
31
0
39
0
210
0
220
0
230
1
0
LINE
100
AcDbEntity
8
DoorRectangleLayer
62
256
6
ByLayer
5
ab
100
AcDbLine
10
619.14
20
429.5
30
0
11
620
21
429.5
31
0
39
0
210
0
220
0
230
1
0
LINE
100
AcDbEntity
8
DoorRectangleLayer
62
256
6
ByLayer
5
ac
100
AcDbLine
10
620
20
429.5
30
0
11
620
21
426.64
31
0
39
0
210
0
220
0
230
1
0
LINE
100
AcDbEntity
8
DoorRectangleLayer
62
256
6
ByLayer
5
ad
100
AcDbLine
10
620
20
429.5
30
0
11
660
21
429.5
31
0
39
0
210
0
220
0
230
1
0
LINE
100
AcDbEntity
8
DoorRectangleLayer
62
256
6
ByLayer
5
ae
100
AcDbLine
10
620
20
429.5
30
0
11
620
21
479.5
31
0
39
0
210
0
220
0
230
1
0
LINE
100
AcDbEntity
8
DoorRectangleLayer
62
256
6
ByLayer
5
af
100
AcDbLine
10
620
20
479.5
30
0
11
660
21
479.5
31
0
39
0
210
0
220
0
230
1
0
LINE
100
AcDbEntity
8
DoorRectangleLayer
62
256
6
ByLayer
5
b0
100
AcDbLine
10
660
20
479.5
30
0
11
660
21
429.5
31
0
39
0
210
0
220
0
230
1
0
LINE
100
AcDbEntity
8
DoorRectangleLayer
62
256
6
ByLayer
5
b1
100
AcDbLine
10
620
20
479.5
30
0
11
620.86
21
479.5
31
0
39
0
210
0
220
0
230
1
0
LINE
100
AcDbEntity
8
DoorRectangleLayer
62
256
6
ByLayer
5
b2
100
AcDbLine
10
620
20
479.5
30
0
11
620
21
482.36
31
0
39
0
210
0
220
0
230
1
0
LINE
100
AcDbEntity
8
DoorRectangleLayer
62
256
6
ByLayer
5
b3
100
AcDbLine
10
620
20
482.36
30
0
11
620.86
21
482.36
31
0
39
0
210
0
220
0
230
1
0
LINE
100
AcDbEntity
8
DoorRectangleLayer
62
256
6
ByLayer
5
b4
100
AcDbLine
10
620.86
20
482.36
30
0
11
620.86
21
479.5
31
0
39
0
210
0
220
0
230
1
0
LINE
100
AcDbEntity
8
DoorRectangleLayer
62
256
6
ByLayer
5
b5
100
AcDbLine
10
659.14
20
479.5
30
0
11
660
21
479.5
31
0
39
0
210
0
220
0
230
1
0
LINE
100
AcDbEntity
8
DoorRectangleLayer
62
256
6
ByLayer
5
b6
100
AcDbLine
10
659.14
20
479.5
30
0
11
659.14
21
482.36
31
0
39
0
210
0
220
0
230
1
0
LINE
100
AcDbEntity
8
DoorRectangleLayer
62
256
6
ByLayer
5
b7
100
AcDbLine
10
659.14
20
482.36
30
0
11
660
21
482.36
31
0
39
0
210
0
220
0
230
1
0
LINE
100
AcDbEntity
8
DoorRectangleLayer
62
256
6
ByLayer
5
b8
100
AcDbLine
10
660
20
482.36
30
0
11
660
21
479.5
31
0
39
0
210
0
220
0
230
1
0
LINE
100
AcDbEntity
8
DoorRectangleLayer
62
256
6
ByLayer
5
b9
100
AcDbLine
10
620
20
426.64
30
0
11
620.86
21
426.64
31
0
39
0
210
0
220
0
230
1
0
LINE
100
AcDbEntity
8
DoorRectangleLayer
62
256
6
ByLayer
5
ba
100
AcDbLine
10
620
20
426.64
30
0
11
620
21
429.5
31
0
39
0
210
0
220
0
230
1
0
LINE
100
AcDbEntity
8
DoorRectangleLayer
62
256
6
ByLayer
5
bb
100
AcDbLine
10
620
20
429.5
30
0
11
620.86
21
429.5
31
0
39
0
210
0
220
0
230
1
0
LINE
100
AcDbEntity
8
DoorRectangleLayer
62
256
6
ByLayer
5
bc
100
AcDbLine
10
620.86
20
429.5
30
0
11
620.86
21
426.64
31
0
39
0
210
0
220
0
230
1
0
LINE
100
AcDbEntity
8
DoorRectangleLayer
62
256
6
ByLayer
5
bd
100
AcDbLine
10
659.14
20
426.64
30
0
11
660
21
426.64
31
0
39
0
210
0
220
0
230
1
0
LINE
100
AcDbEntity
8
DoorRectangleLayer
62
256
6
ByLayer
5
be
100
AcDbLine
10
659.14
20
426.64
30
0
11
659.14
21
429.5
31
0
39
0
210
0
220
0
230
1
0
LINE
100
AcDbEntity
8
DoorRectangleLayer
62
256
6
ByLayer
5
bf
100
AcDbLine
10
659.14
20
429.5
30
0
11
660
21
429.5
31
0
39
0
210
0
220
0
230
1
0
LINE
100
AcDbEntity
8
DoorRectangleLayer
62
256
6
ByLayer
5
c0
100
AcDbLine
10
660
20
429.5
30
0
11
660
21
426.64
31
0
39
0
210
0
220
0
230
1
0
LINE
100
AcDbEntity
8
DoorRectangleLayer
62
256
6
ByLayer
5
c1
100
AcDbLine
10
660
20
429.5
30
0
11
700
21
429.5
31
0
39
0
210
0
220
0
230
1
0
LINE
100
AcDbEntity
8
DoorRectangleLayer
62
256
6
ByLayer
5
c2
100
AcDbLine
10
660
20
429.5
30
0
11
660
21
479.5
31
0
39
0
210
0
220
0
230
1
0
LINE
100
AcDbEntity
8
DoorRectangleLayer
62
256
6
ByLayer
5
c3
100
AcDbLine
10
660
20
479.5
30
0
11
700
21
479.5
31
0
39
0
210
0
220
0
230
1
0
LINE
100
AcDbEntity
8
DoorRectangleLayer
62
256
6
ByLayer
5
c4
100
AcDbLine
10
700
20
479.5
30
0
11
700
21
429.5
31
0
39
0
210
0
220
0
230
1
0
LINE
100
AcDbEntity
8
DoorRectangleLayer
62
256
6
ByLayer
5
c5
100
AcDbLine
10
660
20
479.5
30
0
11
660.86
21
479.5
31
0
39
0
210
0
220
0
230
1
0
LINE
100
AcDbEntity
8
DoorRectangleLayer
62
256
6
ByLayer
5
c6
100
AcDbLine
10
660
20
479.5
30
0
11
660
21
482.36
31
0
39
0
210
0
220
0
230
1
0
LINE
100
AcDbEntity
8
DoorRectangleLayer
62
256
6
ByLayer
5
c7
100
AcDbLine
10
660
20
482.36
30
0
11
660.86
21
482.36
31
0
39
0
210
0
220
0
230
1
0
LINE
100
AcDbEntity
8
DoorRectangleLayer
62
256
6
ByLayer
5
c8
100
AcDbLine
10
660.86
20
482.36
30
0
11
660.86
21
479.5
31
0
39
0
210
0
220
0
230
1
0
LINE
100
AcDbEntity
8
DoorRectangleLayer
62
256
6
ByLayer
5
c9
100
AcDbLine
10
699.14
20
479.5
30
0
11
700
21
479.5
31
0
39
0
210
0
220
0
230
1
0
LINE
100
AcDbEntity
8
DoorRectangleLayer
62
256
6
ByLayer
5
ca
100
AcDbLine
10
699.14
20
479.5
30
0
11
699.14
21
482.36
31
0
39
0
210
0
220
0
230
1
0
LINE
100
AcDbEntity
8
DoorRectangleLayer
62
256
6
ByLayer
5
cb
100
AcDbLine
10
699.14
20
482.36
30
0
11
700
21
482.36
31
0
39
0
210
0
220
0
230
1
0
LINE
100
AcDbEntity
8
DoorRectangleLayer
62
256
6
ByLayer
5
cc
100
AcDbLine
10
700
20
482.36
30
0
11
700
21
479.5
31
0
39
0
210
0
220
0
230
1
0
LINE
100
AcDbEntity
8
DoorRectangleLayer
62
256
6
ByLayer
5
cd
100
AcDbLine
10
660
20
426.64
30
0
11
660.86
21
426.64
31
0
39
0
210
0
220
0
230
1
0
LINE
100
AcDbEntity
8
DoorRectangleLayer
62
256
6
ByLayer
5
ce
100
AcDbLine
10
660
20
426.64
30
0
11
660
21
429.5
31
0
39
0
210
0
220
0
230
1
0
LINE
100
AcDbEntity
8
DoorRectangleLayer
62
256
6
ByLayer
5
cf
100
AcDbLine
10
660
20
429.5
30
0
11
660.86
21
429.5
31
0
39
0
210
0
220
0
230
1
0
LINE
100
AcDbEntity
8
DoorRectangleLayer
62
256
6
ByLayer
5
d0
100
AcDbLine
10
660.86
20
429.5
30
0
11
660.86
21
426.64
31
0
39
0
210
0
220
0
230
1
0
LINE
100
AcDbEntity
8
DoorRectangleLayer
62
256
6
ByLayer
5
d1
100
AcDbLine
10
699.14
20
426.64
30
0
11
700
21
426.64
31
0
39
0
210
0
220
0
230
1
0
LINE
100
AcDbEntity
8
DoorRectangleLayer
62
256
6
ByLayer
5
d2
100
AcDbLine
10
699.14
20
426.64
30
0
11
699.14
21
429.5
31
0
39
0
210
0
220
0
230
1
0
LINE
100
AcDbEntity
8
DoorRectangleLayer
62
256
6
ByLayer
5
d3
100
AcDbLine
10
699.14
20
429.5
30
0
11
700
21
429.5
31
0
39
0
210
0
220
0
230
1
0
LINE
100
AcDbEntity
8
DoorRectangleLayer
62
256
6
ByLayer
5
d4
100
AcDbLine
10
700
20
429.5
30
0
11
700
21
426.64
31
0
39
0
210
0
220
0
230
1
0
LINE
100
AcDbEntity
8
DoorRectangleLayer
62
256
6
ByLayer
5
d5
100
AcDbLine
10
700
20
429.5
30
0
11
740
21
429.5
31
0
39
0
210
0
220
0
230
1
0
LINE
100
AcDbEntity
8
DoorRectangleLayer
62
256
6
ByLayer
5
d6
100
AcDbLine
10
700
20
429.5
30
0
11
700
21
479.5
31
0
39
0
210
0
220
0
230
1
0
LINE
100
AcDbEntity
8
DoorRectangleLayer
62
256
6
ByLayer
5
d7
100
AcDbLine
10
700
20
479.5
30
0
11
740
21
479.5
31
0
39
0
210
0
220
0
230
1
0
LINE
100
AcDbEntity
8
DoorRectangleLayer
62
256
6
ByLayer
5
d8
100
AcDbLine
10
740
20
479.5
30
0
11
740
21
429.5
31
0
39
0
210
0
220
0
230
1
0
LINE
100
AcDbEntity
8
DoorRectangleLayer
62
256
6
ByLayer
5
d9
100
AcDbLine
10
700
20
479.5
30
0
11
700.86
21
479.5
31
0
39
0
210
0
220
0
230
1
0
LINE
100
AcDbEntity
8
DoorRectangleLayer
62
256
6
ByLayer
5
da
100
AcDbLine
10
700
20
479.5
30
0
11
700
21
482.36
31
0
39
0
210
0
220
0
230
1
0
LINE
100
AcDbEntity
8
DoorRectangleLayer
62
256
6
ByLayer
5
db
100
AcDbLine
10
700
20
482.36
30
0
11
700.86
21
482.36
31
0
39
0
210
0
220
0
230
1
0
LINE
100
AcDbEntity
8
DoorRectangleLayer
62
256
6
ByLayer
5
dc
100
AcDbLine
10
700.86
20
482.36
30
0
11
700.86
21
479.5
31
0
39
0
210
0
220
0
230
1
0
LINE
100
AcDbEntity
8
DoorRectangleLayer
62
256
6
ByLayer
5
dd
100
AcDbLine
10
739.14
20
479.5
30
0
11
740
21
479.5
31
0
39
0
210
0
220
0
230
1
0
LINE
100
AcDbEntity
8
DoorRectangleLayer
62
256
6
ByLayer
5
de
100
AcDbLine
10
739.14
20
479.5
30
0
11
739.14
21
482.36
31
0
39
0
210
0
220
0
230
1
0
LINE
100
AcDbEntity
8
DoorRectangleLayer
62
256
6
ByLayer
5
df
100
AcDbLine
10
739.14
20
482.36
30
0
11
740
21
482.36
31
0
39
0
210
0
220
0
230
1
0
LINE
100
AcDbEntity
8
DoorRectangleLayer
62
256
6
ByLayer
5
e0
100
AcDbLine
10
740
20
482.36
30
0
11
740
21
479.5
31
0
39
0
210
0
220
0
230
1
0
LINE
100
AcDbEntity
8
DoorRectangleLayer
62
256
6
ByLayer
5
e1
100
AcDbLine
10
700
20
426.64
30
0
11
700.86
21
426.64
31
0
39
0
210
0
220
0
230
1
0
LINE
100
AcDbEntity
8
DoorRectangleLayer
62
256
6
ByLayer
5
e2
100
AcDbLine
10
700
20
426.64
30
0
11
700
21
429.5
31
0
39
0
210
0
220
0
230
1
0
LINE
100
AcDbEntity
8
DoorRectangleLayer
62
256
6
ByLayer
5
e3
100
AcDbLine
10
700
20
429.5
30
0
11
700.86
21
429.5
31
0
39
0
210
0
220
0
230
1
0
LINE
100
AcDbEntity
8
DoorRectangleLayer
62
256
6
ByLayer
5
e4
100
AcDbLine
10
700.86
20
429.5
30
0
11
700.86
21
426.64
31
0
39
0
210
0
220
0
230
1
0
LINE
100
AcDbEntity
8
DoorRectangleLayer
62
256
6
ByLayer
5
e5
100
AcDbLine
10
739.14
20
426.64
30
0
11
740
21
426.64
31
0
39
0
210
0
220
0
230
1
0
LINE
100
AcDbEntity
8
DoorRectangleLayer
62
256
6
ByLayer
5
e6
100
AcDbLine
10
739.14
20
426.64
30
0
11
739.14
21
429.5
31
0
39
0
210
0
220
0
230
1
0
LINE
100
AcDbEntity
8
DoorRectangleLayer
62
256
6
ByLayer
5
e7
100
AcDbLine
10
739.14
20
429.5
30
0
11
740
21
429.5
31
0
39
0
210
0
220
0
230
1
0
LINE
100
AcDbEntity
8
DoorRectangleLayer
62
256
6
ByLayer
5
e8
100
AcDbLine
10
740
20
429.5
30
0
11
740
21
426.64
31
0
39
0
210
0
220
0
230
1
0
LINE
100
AcDbEntity
8
DoorRectangleLayer
62
256
6
ByLayer
5
e9
100
AcDbLine
10
740
20
429.5
30
0
11
780
21
429.5
31
0
39
0
210
0
220
0
230
1
0
LINE
100
AcDbEntity
8
DoorRectangleLayer
62
256
6
ByLayer
5
ea
100
AcDbLine
10
740
20
429.5
30
0
11
740
21
479.5
31
0
39
0
210
0
220
0
230
1
0
LINE
100
AcDbEntity
8
DoorRectangleLayer
62
256
6
ByLayer
5
eb
100
AcDbLine
10
740
20
479.5
30
0
11
780
21
479.5
31
0
39
0
210
0
220
0
230
1
0
LINE
100
AcDbEntity
8
DoorRectangleLayer
62
256
6
ByLayer
5
ec
100
AcDbLine
10
780
20
479.5
30
0
11
780
21
429.5
31
0
39
0
210
0
220
0
230
1
0
LINE
100
AcDbEntity
8
DoorRectangleLayer
62
256
6
ByLayer
5
ed
100
AcDbLine
10
740
20
479.5
30
0
11
740.86
21
479.5
31
0
39
0
210
0
220
0
230
1
0
LINE
100
AcDbEntity
8
DoorRectangleLayer
62
256
6
ByLayer
5
ee
100
AcDbLine
10
740
20
479.5
30
0
11
740
21
482.36
31
0
39
0
210
0
220
0
230
1
0
LINE
100
AcDbEntity
8
DoorRectangleLayer
62
256
6
ByLayer
5
ef
100
AcDbLine
10
740
20
482.36
30
0
11
740.86
21
482.36
31
0
39
0
210
0
220
0
230
1
0
LINE
100
AcDbEntity
8
DoorRectangleLayer
62
256
6
ByLayer
5
f0
100
AcDbLine
10
740.86
20
482.36
30
0
11
740.86
21
479.5
31
0
39
0
210
0
220
0
230
1
0
LINE
100
AcDbEntity
8
DoorRectangleLayer
62
256
6
ByLayer
5
f1
100
AcDbLine
10
779.14
20
479.5
30
0
11
780
21
479.5
31
0
39
0
210
0
220
0
230
1
0
LINE
100
AcDbEntity
8
DoorRectangleLayer
62
256
6
ByLayer
5
f2
100
AcDbLine
10
779.14
20
479.5
30
0
11
779.14
21
482.36
31
0
39
0
210
0
220
0
230
1
0
LINE
100
AcDbEntity
8
DoorRectangleLayer
62
256
6
ByLayer
5
f3
100
AcDbLine
10
779.14
20
482.36
30
0
11
780
21
482.36
31
0
39
0
210
0
220
0
230
1
0
LINE
100
AcDbEntity
8
DoorRectangleLayer
62
256
6
ByLayer
5
f4
100
AcDbLine
10
780
20
482.36
30
0
11
780
21
479.5
31
0
39
0
210
0
220
0
230
1
0
LINE
100
AcDbEntity
8
DoorRectangleLayer
62
256
6
ByLayer
5
f5
100
AcDbLine
10
740
20
426.64
30
0
11
740.86
21
426.64
31
0
39
0
210
0
220
0
230
1
0
LINE
100
AcDbEntity
8
DoorRectangleLayer
62
256
6
ByLayer
5
f6
100
AcDbLine
10
740
20
426.64
30
0
11
740
21
429.5
31
0
39
0
210
0
220
0
230
1
0
LINE
100
AcDbEntity
8
DoorRectangleLayer
62
256
6
ByLayer
5
f7
100
AcDbLine
10
740
20
429.5
30
0
11
740.86
21
429.5
31
0
39
0
210
0
220
0
230
1
0
LINE
100
AcDbEntity
8
DoorRectangleLayer
62
256
6
ByLayer
5
f8
100
AcDbLine
10
740.86
20
429.5
30
0
11
740.86
21
426.64
31
0
39
0
210
0
220
0
230
1
0
LINE
100
AcDbEntity
8
DoorRectangleLayer
62
256
6
ByLayer
5
f9
100
AcDbLine
10
779.14
20
426.64
30
0
11
780
21
426.64
31
0
39
0
210
0
220
0
230
1
0
LINE
100
AcDbEntity
8
DoorRectangleLayer
62
256
6
ByLayer
5
fa
100
AcDbLine
10
779.14
20
426.64
30
0
11
779.14
21
429.5
31
0
39
0
210
0
220
0
230
1
0
LINE
100
AcDbEntity
8
DoorRectangleLayer
62
256
6
ByLayer
5
fb
100
AcDbLine
10
779.14
20
429.5
30
0
11
780
21
429.5
31
0
39
0
210
0
220
0
230
1
0
LINE
100
AcDbEntity
8
DoorRectangleLayer
62
256
6
ByLayer
5
fc
100
AcDbLine
10
780
20
429.5
30
0
11
780
21
426.64
31
0
39
0
210
0
220
0
230
1
0
LINE
100
AcDbEntity
8
dimensionLayer
62
256
6
ByLayer
5
fd
100
AcDbLine
10
602
20
426.64
30
0
11
597
21
426.64
31
0
39
0
210
0
220
0
230
1
0
LINE
100
AcDbEntity
8
dimensionLayer
62
256
6
ByLayer
5
fe
100
AcDbLine
10
602
20
429.5
30
0
11
597
21
429.5
31
0
39
0
210
0
220
0
230
1
0
LINE
100
AcDbEntity
8
dimensionLayer
62
256
6
ByLayer
5
ff
100
AcDbLine
10
597.625
20
426.64
30
0
11
597.625
21
427.57
31
0
39
0
210
0
220
0
230
1
0
LINE
100
AcDbEntity
8
dimensionLayer
62
256
6
ByLayer
5
100
100
AcDbLine
10
597.625
20
429.5
30
0
11
597.625
21
428.57
31
0
39
0
210
0
220
0
230
1
0
LINE
100
AcDbEntity
8
dimensionLayer
62
256
6
ByLayer
5
101
100
AcDbLine
10
597.625
20
426.64
30
0
11
597.425
21
426.84
31
0
39
0
210
0
220
0
230
1
0
LINE
100
AcDbEntity
8
dimensionLayer
62
256
6
ByLayer
5
102
100
AcDbLine
10
597.625
20
426.64
30
0
11
597.825
21
426.84
31
0
39
0
210
0
220
0
230
1
0
LINE
100
AcDbEntity
8
dimensionLayer
62
256
6
ByLayer
5
103
100
AcDbLine
10
597.625
20
429.5
30
0
11
597.425
21
429.3
31
0
39
0
210
0
220
0
230
1
0
LINE
100
AcDbEntity
8
dimensionLayer
62
256
6
ByLayer
5
104
100
AcDbLine
10
597.625
20
429.5
30
0
11
597.825
21
429.3
31
0
39
0
210
0
220
0
230
1
0
LINE
100
AcDbEntity
8
dimensionLayer
62
256
6
ByLayer
5
105
100
AcDbLine
10
602
20
429.5
30
0
11
597
21
429.5
31
0
39
0
210
0
220
0
230
1
0
LINE
100
AcDbEntity
8
dimensionLayer
62
256
6
ByLayer
5
106
100
AcDbLine
10
602
20
434.5
30
0
11
597
21
434.5
31
0
39
0
210
0
220
0
230
1
0
LINE
100
AcDbEntity
8
dimensionLayer
62
256
6
ByLayer
5
107
100
AcDbLine
10
597.625
20
429.5
30
0
11
597.625
21
431.5
31
0
39
0
210
0
220
0
230
1
0
LINE
100
AcDbEntity
8
dimensionLayer
62
256
6
ByLayer
5
108
100
AcDbLine
10
597.625
20
434.5
30
0
11
597.625
21
432.5
31
0
39
0
210
0
220
0
230
1
0
LINE
100
AcDbEntity
8
dimensionLayer
62
256
6
ByLayer
5
109
100
AcDbLine
10
597.625
20
429.5
30
0
11
597.425
21
429.7
31
0
39
0
210
0
220
0
230
1
0
LINE
100
AcDbEntity
8
dimensionLayer
62
256
6
ByLayer
5
10a
100
AcDbLine
10
597.625
20
429.5
30
0
11
597.825
21
429.7
31
0
39
0
210
0
220
0
230
1
0
LINE
100
AcDbEntity
8
dimensionLayer
62
256
6
ByLayer
5
10b
100
AcDbLine
10
597.625
20
434.5
30
0
11
597.425
21
434.3
31
0
39
0
210
0
220
0
230
1
0
LINE
100
AcDbEntity
8
dimensionLayer
62
256
6
ByLayer
5
10c
100
AcDbLine
10
597.625
20
434.5
30
0
11
597.825
21
434.3
31
0
39
0
210
0
220
0
230
1
0
LINE
100
AcDbEntity
8
dimensionLayer
62
256
6
ByLayer
5
10d
100
AcDbLine
10
602
20
434.5
30
0
11
594
21
434.5
31
0
39
0
210
0
220
0
230
1
0
LINE
100
AcDbEntity
8
dimensionLayer
62
256
6
ByLayer
5
10e
100
AcDbLine
10
602
20
474.5
30
0
11
594
21
474.5
31
0
39
0
210
0
220
0
230
1
0
LINE
100
AcDbEntity
8
dimensionLayer
62
256
6
ByLayer
5
10f
100
AcDbLine
10
595
20
434.5
30
0
11
595
21
454
31
0
39
0
210
0
220
0
230
1
0
LINE
100
AcDbEntity
8
dimensionLayer
62
256
6
ByLayer
5
110
100
AcDbLine
10
595
20
474.5
30
0
11
595
21
455
31
0
39
0
210
0
220
0
230
1
0
LINE
100
AcDbEntity
8
dimensionLayer
62
256
6
ByLayer
5
111
100
AcDbLine
10
595
20
434.5
30
0
11
594.8
21
434.7
31
0
39
0
210
0
220
0
230
1
0
LINE
100
AcDbEntity
8
dimensionLayer
62
256
6
ByLayer
5
112
100
AcDbLine
10
595
20
434.5
30
0
11
595.2
21
434.7
31
0
39
0
210
0
220
0
230
1
0
LINE
100
AcDbEntity
8
dimensionLayer
62
256
6
ByLayer
5
113
100
AcDbLine
10
595
20
474.5
30
0
11
594.8
21
474.3
31
0
39
0
210
0
220
0
230
1
0
LINE
100
AcDbEntity
8
dimensionLayer
62
256
6
ByLayer
5
114
100
AcDbLine
10
595
20
474.5
30
0
11
595.2
21
474.3
31
0
39
0
210
0
220
0
230
1
0
LINE
100
AcDbEntity
8
dimensionLayer
62
256
6
ByLayer
5
115
100
AcDbLine
10
602
20
479.5
30
0
11
602
21
489.5
31
0
39
0
210
0
220
0
230
1
0
LINE
100
AcDbEntity
8
dimensionLayer
62
256
6
ByLayer
5
116
100
AcDbLine
10
780
20
479.5
30
0
11
780
21
489.5
31
0
39
0
210
0
220
0
230
1
0
LINE
100
AcDbEntity
8
dimensionLayer
62
256
6
ByLayer
5
117
100
AcDbLine
10
602
20
488.25
30
0
11
690.5
21
488.25
31
0
39
0
210
0
220
0
230
1
0
LINE
100
AcDbEntity
8
dimensionLayer
62
256
6
ByLayer
5
118
100
AcDbLine
10
780
20
488.25
30
0
11
691.5
21
488.25
31
0
39
0
210
0
220
0
230
1
0
LINE
100
AcDbEntity
8
dimensionLayer
62
256
6
ByLayer
5
119
100
AcDbLine
10
602
20
488.25
30
0
11
602.2
21
488.45
31
0
39
0
210
0
220
0
230
1
0
LINE
100
AcDbEntity
8
dimensionLayer
62
256
6
ByLayer
5
11a
100
AcDbLine
10
602
20
488.25
30
0
11
602.2
21
488.05
31
0
39
0
210
0
220
0
230
1
0
LINE
100
AcDbEntity
8
dimensionLayer
62
256
6
ByLayer
5
11b
100
AcDbLine
10
780
20
488.25
30
0
11
779.8
21
488.45
31
0
39
0
210
0
220
0
230
1
0
LINE
100
AcDbEntity
8
dimensionLayer
62
256
6
ByLayer
5
11c
100
AcDbLine
10
780
20
488.25
30
0
11
779.8
21
488.05
31
0
39
0
210
0
220
0
230
1
0
LINE
100
AcDbEntity
8
dimensionLayer
62
256
6
ByLayer
5
11d
100
AcDbLine
10
780
20
439.5
30
0
11
785
21
439.5
31
0
39
0
210
0
220
0
230
1
0
LINE
100
AcDbEntity
8
dimensionLayer
62
256
6
ByLayer
5
11e
100
AcDbLine
10
780
20
469.5
30
0
11
785
21
469.5
31
0
39
0
210
0
220
0
230
1
0
LINE
100
AcDbEntity
8
dimensionLayer
62
256
6
ByLayer
5
11f
100
AcDbLine
10
784.375
20
439.5
30
0
11
784.375
21
454
31
0
39
0
210
0
220
0
230
1
0
LINE
100
AcDbEntity
8
dimensionLayer
62
256
6
ByLayer
5
120
100
AcDbLine
10
784.375
20
469.5
30
0
11
784.375
21
455
31
0
39
0
210
0
220
0
230
1
0
LINE
100
AcDbEntity
8
dimensionLayer
62
256
6
ByLayer
5
121
100
AcDbLine
10
784.375
20
439.5
30
0
11
784.175
21
439.7
31
0
39
0
210
0
220
0
230
1
0
LINE
100
AcDbEntity
8
dimensionLayer
62
256
6
ByLayer
5
122
100
AcDbLine
10
784.375
20
439.5
30
0
11
784.575
21
439.7
31
0
39
0
210
0
220
0
230
1
0
LINE
100
AcDbEntity
8
dimensionLayer
62
256
6
ByLayer
5
123
100
AcDbLine
10
784.375
20
469.5
30
0
11
784.175
21
469.3
31
0
39
0
210
0
220
0
230
1
0
LINE
100
AcDbEntity
8
dimensionLayer
62
256
6
ByLayer
5
124
100
AcDbLine
10
784.375
20
469.5
30
0
11
784.575
21
469.3
31
0
39
0
210
0
220
0
230
1
0
LINE
100
AcDbEntity
8
dimensionLayer
62
256
6
ByLayer
5
125
100
AcDbLine
10
780
20
429.5
30
0
11
785
21
429.5
31
0
39
0
210
0
220
0
230
1
0
LINE
100
AcDbEntity
8
dimensionLayer
62
256
6
ByLayer
5
126
100
AcDbLine
10
780
20
439.5
30
0
11
785
21
439.5
31
0
39
0
210
0
220
0
230
1
0
LINE
100
AcDbEntity
8
dimensionLayer
62
256
6
ByLayer
5
127
100
AcDbLine
10
784.375
20
429.5
30
0
11
784.375
21
434
31
0
39
0
210
0
220
0
230
1
0
LINE
100
AcDbEntity
8
dimensionLayer
62
256
6
ByLayer
5
128
100
AcDbLine
10
784.375
20
439.5
30
0
11
784.375
21
435
31
0
39
0
210
0
220
0
230
1
0
LINE
100
AcDbEntity
8
dimensionLayer
62
256
6
ByLayer
5
129
100
AcDbLine
10
784.375
20
429.5
30
0
11
784.175
21
429.7
31
0
39
0
210
0
220
0
230
1
0
LINE
100
AcDbEntity
8
dimensionLayer
62
256
6
ByLayer
5
12a
100
AcDbLine
10
784.375
20
429.5
30
0
11
784.575
21
429.7
31
0
39
0
210
0
220
0
230
1
0
LINE
100
AcDbEntity
8
dimensionLayer
62
256
6
ByLayer
5
12b
100
AcDbLine
10
784.375
20
439.5
30
0
11
784.175
21
439.3
31
0
39
0
210
0
220
0
230
1
0
LINE
100
AcDbEntity
8
dimensionLayer
62
256
6
ByLayer
5
12c
100
AcDbLine
10
784.375
20
439.5
30
0
11
784.575
21
439.3
31
0
39
0
210
0
220
0
230
1
0
LINE
100
AcDbEntity
8
dimensionLayer
62
256
6
ByLayer
5
12d
100
AcDbLine
10
780
20
429.5
30
0
11
790
21
429.5
31
0
39
0
210
0
220
0
230
1
0
LINE
100
AcDbEntity
8
dimensionLayer
62
256
6
ByLayer
5
12e
100
AcDbLine
10
780
20
479.5
30
0
11
790
21
479.5
31
0
39
0
210
0
220
0
230
1
0
LINE
100
AcDbEntity
8
dimensionLayer
62
256
6
ByLayer
5
12f
100
AcDbLine
10
788.75
20
429.5
30
0
11
788.75
21
454
31
0
39
0
210
0
220
0
230
1
0
LINE
100
AcDbEntity
8
dimensionLayer
62
256
6
ByLayer
5
130
100
AcDbLine
10
788.75
20
479.5
30
0
11
788.75
21
455
31
0
39
0
210
0
220
0
230
1
0
LINE
100
AcDbEntity
8
dimensionLayer
62
256
6
ByLayer
5
131
100
AcDbLine
10
788.75
20
429.5
30
0
11
788.55
21
429.7
31
0
39
0
210
0
220
0
230
1
0
LINE
100
AcDbEntity
8
dimensionLayer
62
256
6
ByLayer
5
132
100
AcDbLine
10
788.75
20
429.5
30
0
11
788.95
21
429.7
31
0
39
0
210
0
220
0
230
1
0
LINE
100
AcDbEntity
8
dimensionLayer
62
256
6
ByLayer
5
133
100
AcDbLine
10
788.75
20
479.5
30
0
11
788.55
21
479.3
31
0
39
0
210
0
220
0
230
1
0
LINE
100
AcDbEntity
8
dimensionLayer
62
256
6
ByLayer
5
134
100
AcDbLine
10
788.75
20
479.5
30
0
11
788.95
21
479.3
31
0
39
0
210
0
220
0
230
1
0
LINE
100
AcDbEntity
8
dimensionLayer
62
256
6
ByLayer
5
135
100
AcDbLine
10
780
20
423.5
30
0
11
790
21
423.5
31
0
39
0
210
0
220
0
230
1
0
LINE
100
AcDbEntity
8
dimensionLayer
62
256
6
ByLayer
5
136
100
AcDbLine
10
780
20
429.5
30
0
11
790
21
429.5
31
0
39
0
210
0
220
0
230
1
0
LINE
100
AcDbEntity
8
dimensionLayer
62
256
6
ByLayer
5
137
100
AcDbLine
10
788.75
20
423.5
30
0
11
788.75
21
426
31
0
39
0
210
0
220
0
230
1
0
LINE
100
AcDbEntity
8
dimensionLayer
62
256
6
ByLayer
5
138
100
AcDbLine
10
788.75
20
429.5
30
0
11
788.75
21
427
31
0
39
0
210
0
220
0
230
1
0
LINE
100
AcDbEntity
8
dimensionLayer
62
256
6
ByLayer
5
139
100
AcDbLine
10
788.75
20
423.5
30
0
11
788.55
21
423.7
31
0
39
0
210
0
220
0
230
1
0
LINE
100
AcDbEntity
8
dimensionLayer
62
256
6
ByLayer
5
13a
100
AcDbLine
10
788.75
20
423.5
30
0
11
788.95
21
423.7
31
0
39
0
210
0
220
0
230
1
0
LINE
100
AcDbEntity
8
dimensionLayer
62
256
6
ByLayer
5
13b
100
AcDbLine
10
788.75
20
429.5
30
0
11
788.55
21
429.3
31
0
39
0
210
0
220
0
230
1
0
LINE
100
AcDbEntity
8
dimensionLayer
62
256
6
ByLayer
5
13c
100
AcDbLine
10
788.75
20
429.5
30
0
11
788.95
21
429.3
31
0
39
0
210
0
220
0
230
1
0
LINE
100
AcDbEntity
8
dimensionLayer
62
256
6
ByLayer
5
13d
100
AcDbLine
10
780
20
423.5
30
0
11
794
21
423.5
31
0
39
0
210
0
220
0
230
1
0
LINE
100
AcDbEntity
8
dimensionLayer
62
256
6
ByLayer
5
13e
100
AcDbLine
10
780
20
482.36
30
0
11
794
21
482.36
31
0
39
0
210
0
220
0
230
1
0
LINE
100
AcDbEntity
8
dimensionLayer
62
256
6
ByLayer
5
13f
100
AcDbLine
10
792.25
20
423.5
30
0
11
792.25
21
452.43
31
0
39
0
210
0
220
0
230
1
0
LINE
100
AcDbEntity
8
dimensionLayer
62
256
6
ByLayer
5
140
100
AcDbLine
10
792.25
20
482.36
30
0
11
792.25
21
453.43
31
0
39
0
210
0
220
0
230
1
0
LINE
100
AcDbEntity
8
dimensionLayer
62
256
6
ByLayer
5
141
100
AcDbLine
10
792.25
20
423.5
30
0
11
792.05
21
423.7
31
0
39
0
210
0
220
0
230
1
0
LINE
100
AcDbEntity
8
dimensionLayer
62
256
6
ByLayer
5
142
100
AcDbLine
10
792.25
20
423.5
30
0
11
792.45
21
423.7
31
0
39
0
210
0
220
0
230
1
0
LINE
100
AcDbEntity
8
dimensionLayer
62
256
6
ByLayer
5
143
100
AcDbLine
10
792.25
20
482.36
30
0
11
792.05
21
482.16
31
0
39
0
210
0
220
0
230
1
0
LINE
100
AcDbEntity
8
dimensionLayer
62
256
6
ByLayer
5
144
100
AcDbLine
10
792.25
20
482.36
30
0
11
792.45
21
482.16
31
0
39
0
210
0
220
0
230
1
0
LINE
100
AcDbEntity
8
DoorRectangleLayer
62
256
6
ByLayer
5
145
100
AcDbLine
10
602
20
359
30
0
11
620
21
359
31
0
39
0
210
0
220
0
230
1
0
LINE
100
AcDbEntity
8
DoorRectangleLayer
62
256
6
ByLayer
5
146
100
AcDbLine
10
602
20
359
30
0
11
602
21
403
31
0
39
0
210
0
220
0
230
1
0
LINE
100
AcDbEntity
8
DoorRectangleLayer
62
256
6
ByLayer
5
147
100
AcDbLine
10
602
20
403
30
0
11
620
21
403
31
0
39
0
210
0
220
0
230
1
0
LINE
100
AcDbEntity
8
DoorRectangleLayer
62
256
6
ByLayer
5
148
100
AcDbLine
10
620
20
403
30
0
11
620
21
359
31
0
39
0
210
0
220
0
230
1
0
LINE
100
AcDbEntity
8
DoorBarRectangle
62
256
6
ByLayer
5
149
100
AcDbLine
10
604
20
361
30
0
11
618
21
361
31
0
39
0
210
0
220
0
230
1
0
LINE
100
AcDbEntity
8
DoorBarRectangle
62
256
6
ByLayer
5
14a
100
AcDbLine
10
604
20
361
30
0
11
604
21
370
31
0
39
0
210
0
220
0
230
1
0
LINE
100
AcDbEntity
8
DoorBarRectangle
62
256
6
ByLayer
5
14b
100
AcDbLine
10
604
20
372
30
0
11
604
21
390
31
0
39
0
210
0
220
0
230
1
0
LINE
100
AcDbEntity
8
DoorBarRectangle
62
256
6
ByLayer
5
14c
100
AcDbLine
10
604
20
392
30
0
11
604
21
401
31
0
39
0
210
0
220
0
230
1
0
LINE
100
AcDbEntity
8
DoorBarRectangle
62
256
6
ByLayer
5
14d
100
AcDbLine
10
604
20
401
30
0
11
618
21
401
31
0
39
0
210
0
220
0
230
1
0
LINE
100
AcDbEntity
8
DoorBarRectangle
62
256
6
ByLayer
5
14e
100
AcDbLine
10
618
20
401
30
0
11
618
21
361
31
0
39
0
210
0
220
0
230
1
0
LINE
100
AcDbEntity
8
DoorBarRectangle
62
256
6
ByLayer
5
14f
100
AcDbLine
10
604.86
20
361.86
30
0
11
617.14
21
361.86
31
0
39
0
210
0
220
0
230
1
0
LINE
100
AcDbEntity
8
DoorBarRectangle
62
256
6
ByLayer
5
150
100
AcDbLine
10
604.86
20
361.86
30
0
11
604.86
21
370
31
0
39
0
210
0
220
0
230
1
0
LINE
100
AcDbEntity
8
DoorBarRectangle
62
256
6
ByLayer
5
151
100
AcDbLine
10
604.86
20
372
30
0
11
604.86
21
390
31
0
39
0
210
0
220
0
230
1
0
LINE
100
AcDbEntity
8
DoorBarRectangle
62
256
6
ByLayer
5
152
100
AcDbLine
10
604.86
20
392
30
0
11
604.86
21
400.14
31
0
39
0
210
0
220
0
230
1
0
LINE
100
AcDbEntity
8
DoorBarRectangle
62
256
6
ByLayer
5
153
100
AcDbLine
10
604.86
20
400.14
30
0
11
617.14
21
400.14
31
0
39
0
210
0
220
0
230
1
0
LINE
100
AcDbEntity
8
DoorBarRectangle
62
256
6
ByLayer
5
154
100
AcDbLine
10
617.14
20
400.14
30
0
11
617.14
21
361.86
31
0
39
0
210
0
220
0
230
1
0
LINE
100
AcDbEntity
8
RepresentDoorBarRectangle
62
256
6
ByLayer
5
155
100
AcDbLine
10
603.43
20
370
30
0
11
605.43
21
370
31
0
39
0
210
0
220
0
230
1
0
LINE
100
AcDbEntity
8
RepresentDoorBarRectangle
62
256
6
ByLayer
5
156
100
AcDbLine
10
603.43
20
370
30
0
11
603.43
21
372
31
0
39
0
210
0
220
0
230
1
0
LINE
100
AcDbEntity
8
RepresentDoorBarRectangle
62
256
6
ByLayer
5
157
100
AcDbLine
10
603.43
20
372
30
0
11
605.43
21
372
31
0
39
0
210
0
220
0
230
1
0
LINE
100
AcDbEntity
8
RepresentDoorBarRectangle
62
256
6
ByLayer
5
158
100
AcDbLine
10
605.43
20
372
30
0
11
605.43
21
370
31
0
39
0
210
0
220
0
230
1
0
LINE
100
AcDbEntity
8
RepresentDoorBarRectangle
62
256
6
ByLayer
5
159
100
AcDbLine
10
604
20
372
30
0
11
604
21
371
31
0
39
0
210
0
220
0
230
1
0
LINE
100
AcDbEntity
8
RepresentDoorBarRectangle
62
256
6
ByLayer
5
15a
100
AcDbLine
10
604
20
371
30
0
11
604.86
21
371
31
0
39
0
210
0
220
0
230
1
0
LINE
100
AcDbEntity
8
RepresentDoorBarRectangle
62
256
6
ByLayer
5
15b
100
AcDbLine
10
604.86
20
371
30
0
11
604.86
21
370
31
0
39
0
210
0
220
0
230
1
0
LINE
100
AcDbEntity
8
RepresentDoorBarRectangle
62
256
6
ByLayer
5
15c
100
AcDbLine
10
603.43
20
390
30
0
11
605.43
21
390
31
0
39
0
210
0
220
0
230
1
0
LINE
100
AcDbEntity
8
RepresentDoorBarRectangle
62
256
6
ByLayer
5
15d
100
AcDbLine
10
603.43
20
390
30
0
11
603.43
21
392
31
0
39
0
210
0
220
0
230
1
0
LINE
100
AcDbEntity
8
RepresentDoorBarRectangle
62
256
6
ByLayer
5
15e
100
AcDbLine
10
603.43
20
392
30
0
11
605.43
21
392
31
0
39
0
210
0
220
0
230
1
0
LINE
100
AcDbEntity
8
RepresentDoorBarRectangle
62
256
6
ByLayer
5
15f
100
AcDbLine
10
605.43
20
392
30
0
11
605.43
21
390
31
0
39
0
210
0
220
0
230
1
0
LINE
100
AcDbEntity
8
RepresentDoorBarRectangle
62
256
6
ByLayer
5
160
100
AcDbLine
10
604
20
392
30
0
11
604
21
391
31
0
39
0
210
0
220
0
230
1
0
LINE
100
AcDbEntity
8
RepresentDoorBarRectangle
62
256
6
ByLayer
5
161
100
AcDbLine
10
604
20
391
30
0
11
604.86
21
391
31
0
39
0
210
0
220
0
230
1
0
LINE
100
AcDbEntity
8
RepresentDoorBarRectangle
62
256
6
ByLayer
5
162
100
AcDbLine
10
604.86
20
391
30
0
11
604.86
21
390
31
0
39
0
210
0
220
0
230
1
0
LINE
100
AcDbEntity
8
DoorRectangleLayer
62
256
6
ByLayer
5
163
100
AcDbLine
10
602
20
356.14
30
0
11
602.86
21
356.14
31
0
39
0
210
0
220
0
230
1
0
LINE
100
AcDbEntity
8
DoorRectangleLayer
62
256
6
ByLayer
5
164
100
AcDbLine
10
602
20
356.14
30
0
11
602
21
359
31
0
39
0
210
0
220
0
230
1
0
LINE
100
AcDbEntity
8
DoorRectangleLayer
62
256
6
ByLayer
5
165
100
AcDbLine
10
602
20
359
30
0
11
602.86
21
359
31
0
39
0
210
0
220
0
230
1
0
LINE
100
AcDbEntity
8
DoorRectangleLayer
62
256
6
ByLayer
5
166
100
AcDbLine
10
602.86
20
359
30
0
11
602.86
21
356.14
31
0
39
0
210
0
220
0
230
1
0
LINE
100
AcDbEntity
8
DoorRectangleLayer
62
256
6
ByLayer
5
167
100
AcDbLine
10
619.14
20
356.14
30
0
11
620
21
356.14
31
0
39
0
210
0
220
0
230
1
0
LINE
100
AcDbEntity
8
DoorRectangleLayer
62
256
6
ByLayer
5
168
100
AcDbLine
10
619.14
20
356.14
30
0
11
619.14
21
359
31
0
39
0
210
0
220
0
230
1
0
LINE
100
AcDbEntity
8
DoorRectangleLayer
62
256
6
ByLayer
5
169
100
AcDbLine
10
619.14
20
359
30
0
11
620
21
359
31
0
39
0
210
0
220
0
230
1
0
LINE
100
AcDbEntity
8
DoorRectangleLayer
62
256
6
ByLayer
5
16a
100
AcDbLine
10
620
20
359
30
0
11
620
21
356.14
31
0
39
0
210
0
220
0
230
1
0
LINE
100
AcDbEntity
8
line
62
256
6
ByLayer
5
16b
100
AcDbLine
10
615.7513
20
390.225
30
0
11
615.602
21
391.71
31
0
39
0
210
0
220
0
230
1
0
LINE
100
AcDbEntity
8
line
62
256
6
ByLayer
5
16c
100
AcDbLine
10
616.2487
20
390.225
30
0
11
616.398
21
391.71
31
0
39
0
210
0
220
0
230
1
0
LINE
100
AcDbEntity
8
line
62
256
6
ByLayer
5
16d
100
AcDbLine
10
615.7513
20
370.225
30
0
11
615.602
21
371.71
31
0
39
0
210
0
220
0
230
1
0
LINE
100
AcDbEntity
8
line
62
256
6
ByLayer
5
16e
100
AcDbLine
10
616.2487
20
370.225
30
0
11
616.398
21
371.71
31
0
39
0
210
0
220
0
230
1
0
LINE
100
AcDbEntity
8
DoorRectangleLayer
62
256
6
ByLayer
5
16f
100
AcDbLine
10
620
20
359
30
0
11
662
21
359
31
0
39
0
210
0
220
0
230
1
0
LINE
100
AcDbEntity
8
DoorRectangleLayer
62
256
6
ByLayer
5
170
100
AcDbLine
10
620
20
359
30
0
11
620
21
403
31
0
39
0
210
0
220
0
230
1
0
LINE
100
AcDbEntity
8
DoorRectangleLayer
62
256
6
ByLayer
5
171
100
AcDbLine
10
620
20
403
30
0
11
662
21
403
31
0
39
0
210
0
220
0
230
1
0
LINE
100
AcDbEntity
8
DoorRectangleLayer
62
256
6
ByLayer
5
172
100
AcDbLine
10
662
20
403
30
0
11
662
21
359
31
0
39
0
210
0
220
0
230
1
0
LINE
100
AcDbEntity
8
nonDoorBarLayer
62
256
6
ByLayer
5
173
100
AcDbLine
10
622
20
361
30
0
11
660
21
361
31
0
39
0
210
0
220
0
230
1
0
LINE
100
AcDbEntity
8
nonDoorBarLayer
62
256
6
ByLayer
5
174
100
AcDbLine
10
622
20
361
30
0
11
622
21
401
31
0
39
0
210
0
220
0
230
1
0
LINE
100
AcDbEntity
8
nonDoorBarLayer
62
256
6
ByLayer
5
175
100
AcDbLine
10
622
20
401
30
0
11
660
21
401
31
0
39
0
210
0
220
0
230
1
0
LINE
100
AcDbEntity
8
nonDoorBarLayer
62
256
6
ByLayer
5
176
100
AcDbLine
10
660
20
401
30
0
11
660
21
361
31
0
39
0
210
0
220
0
230
1
0
LINE
100
AcDbEntity
8
nonDoorBarLayer
62
256
6
ByLayer
5
177
100
AcDbLine
10
622.86
20
361.86
30
0
11
659.14
21
361.86
31
0
39
0
210
0
220
0
230
1
0
LINE
100
AcDbEntity
8
nonDoorBarLayer
62
256
6
ByLayer
5
178
100
AcDbLine
10
622.86
20
361.86
30
0
11
622.86
21
400.14
31
0
39
0
210
0
220
0
230
1
0
LINE
100
AcDbEntity
8
nonDoorBarLayer
62
256
6
ByLayer
5
179
100
AcDbLine
10
622.86
20
400.14
30
0
11
659.14
21
400.14
31
0
39
0
210
0
220
0
230
1
0
LINE
100
AcDbEntity
8
nonDoorBarLayer
62
256
6
ByLayer
5
17a
100
AcDbLine
10
659.14
20
400.14
30
0
11
659.14
21
361.86
31
0
39
0
210
0
220
0
230
1
0
LINE
100
AcDbEntity
8
DoorRectangleLayer
62
256
6
ByLayer
5
17b
100
AcDbLine
10
620
20
356.14
30
0
11
620.86
21
356.14
31
0
39
0
210
0
220
0
230
1
0
LINE
100
AcDbEntity
8
DoorRectangleLayer
62
256
6
ByLayer
5
17c
100
AcDbLine
10
620
20
356.14
30
0
11
620
21
359
31
0
39
0
210
0
220
0
230
1
0
LINE
100
AcDbEntity
8
DoorRectangleLayer
62
256
6
ByLayer
5
17d
100
AcDbLine
10
620
20
359
30
0
11
620.86
21
359
31
0
39
0
210
0
220
0
230
1
0
LINE
100
AcDbEntity
8
DoorRectangleLayer
62
256
6
ByLayer
5
17e
100
AcDbLine
10
620.86
20
359
30
0
11
620.86
21
356.14
31
0
39
0
210
0
220
0
230
1
0
LINE
100
AcDbEntity
8
DoorRectangleLayer
62
256
6
ByLayer
5
17f
100
AcDbLine
10
661.14
20
356.14
30
0
11
662
21
356.14
31
0
39
0
210
0
220
0
230
1
0
LINE
100
AcDbEntity
8
DoorRectangleLayer
62
256
6
ByLayer
5
180
100
AcDbLine
10
661.14
20
356.14
30
0
11
661.14
21
359
31
0
39
0
210
0
220
0
230
1
0
LINE
100
AcDbEntity
8
DoorRectangleLayer
62
256
6
ByLayer
5
181
100
AcDbLine
10
661.14
20
359
30
0
11
662
21
359
31
0
39
0
210
0
220
0
230
1
0
LINE
100
AcDbEntity
8
DoorRectangleLayer
62
256
6
ByLayer
5
182
100
AcDbLine
10
662
20
359
30
0
11
662
21
356.14
31
0
39
0
210
0
220
0
230
1
0
LINE
100
AcDbEntity
8
DoubleDoorBarRectangle
62
256
6
ByLayer
5
183
100
AcDbLine
10
680
20
361
30
0
11
680
21
401
31
0
39
0
210
0
220
0
230
1
0
LINE
100
AcDbEntity
8
DoubleDoorBarRectangle
62
256
6
ByLayer
5
184
100
AcDbLine
10
680.5
20
361.86
30
0
11
680.5
21
400.14
31
0
39
0
210
0
220
0
230
1
0
LINE
100
AcDbEntity
8
DoubleDoorBarRectangle
62
256
6
ByLayer
5
185
100
AcDbLine
10
686
20
361.86
30
0
11
686
21
370
31
0
39
0
210
0
220
0
230
1
0
LINE
100
AcDbEntity
8
DoubleDoorBarRectangle
62
256
6
ByLayer
5
186
100
AcDbLine
10
686
20
372
30
0
11
686
21
390
31
0
39
0
210
0
220
0
230
1
0
LINE
100
AcDbEntity
8
DoubleDoorBarRectangle
62
256
6
ByLayer
5
187
100
AcDbLine
10
686
20
392
30
0
11
686
21
400.14
31
0
39
0
210
0
220
0
230
1
0
LINE
100
AcDbEntity
8
DoubleDoorBarRectangle
62
256
6
ByLayer
5
188
100
AcDbLine
10
686.5
20
361
30
0
11
686.5
21
370
31
0
39
0
210
0
220
0
230
1
0
LINE
100
AcDbEntity
8
DoubleDoorBarRectangle
62
256
6
ByLayer
5
189
100
AcDbLine
10
686.5
20
372
30
0
11
686.5
21
390
31
0
39
0
210
0
220
0
230
1
0
LINE
100
AcDbEntity
8
DoubleDoorBarRectangle
62
256
6
ByLayer
5
18a
100
AcDbLine
10
686.5
20
392
30
0
11
686.5
21
400.14
31
0
39
0
210
0
220
0
230
1
0
LINE
100
AcDbEntity
8
DoorRectangleLayer
62
256
6
ByLayer
5
18b
100
AcDbLine
10
662
20
359
30
0
11
704
21
359
31
0
39
0
210
0
220
0
230
1
0
LINE
100
AcDbEntity
8
DoorRectangleLayer
62
256
6
ByLayer
5
18c
100
AcDbLine
10
662
20
359
30
0
11
662
21
403
31
0
39
0
210
0
220
0
230
1
0
LINE
100
AcDbEntity
8
DoorRectangleLayer
62
256
6
ByLayer
5
18d
100
AcDbLine
10
662
20
403
30
0
11
704
21
403
31
0
39
0
210
0
220
0
230
1
0
LINE
100
AcDbEntity
8
DoorRectangleLayer
62
256
6
ByLayer
5
18e
100
AcDbLine
10
704
20
403
30
0
11
704
21
359
31
0
39
0
210
0
220
0
230
1
0
LINE
100
AcDbEntity
8
DoorBarRectangle
62
256
6
ByLayer
5
18f
100
AcDbLine
10
664
20
361
30
0
11
702
21
361
31
0
39
0
210
0
220
0
230
1
0
LINE
100
AcDbEntity
8
DoorBarRectangle
62
256
6
ByLayer
5
190
100
AcDbLine
10
664
20
361
30
0
11
664
21
370
31
0
39
0
210
0
220
0
230
1
0
LINE
100
AcDbEntity
8
DoorBarRectangle
62
256
6
ByLayer
5
191
100
AcDbLine
10
664
20
372
30
0
11
664
21
390
31
0
39
0
210
0
220
0
230
1
0
LINE
100
AcDbEntity
8
DoorBarRectangle
62
256
6
ByLayer
5
192
100
AcDbLine
10
664
20
392
30
0
11
664
21
401
31
0
39
0
210
0
220
0
230
1
0
LINE
100
AcDbEntity
8
DoorBarRectangle
62
256
6
ByLayer
5
193
100
AcDbLine
10
664
20
401
30
0
11
702
21
401
31
0
39
0
210
0
220
0
230
1
0
LINE
100
AcDbEntity
8
DoorBarRectangle
62
256
6
ByLayer
5
194
100
AcDbLine
10
702
20
401
30
0
11
702
21
361
31
0
39
0
210
0
220
0
230
1
0
LINE
100
AcDbEntity
8
DoorBarRectangle
62
256
6
ByLayer
5
195
100
AcDbLine
10
664.86
20
361.86
30
0
11
701.14
21
361.86
31
0
39
0
210
0
220
0
230
1
0
LINE
100
AcDbEntity
8
DoorBarRectangle
62
256
6
ByLayer
5
196
100
AcDbLine
10
664.86
20
361.86
30
0
11
664.86
21
370
31
0
39
0
210
0
220
0
230
1
0
LINE
100
AcDbEntity
8
DoorBarRectangle
62
256
6
ByLayer
5
197
100
AcDbLine
10
664.86
20
372
30
0
11
664.86
21
390
31
0
39
0
210
0
220
0
230
1
0
LINE
100
AcDbEntity
8
DoorBarRectangle
62
256
6
ByLayer
5
198
100
AcDbLine
10
664.86
20
392
30
0
11
664.86
21
400.14
31
0
39
0
210
0
220
0
230
1
0
LINE
100
AcDbEntity
8
DoorBarRectangle
62
256
6
ByLayer
5
199
100
AcDbLine
10
664.86
20
400.14
30
0
11
701.14
21
400.14
31
0
39
0
210
0
220
0
230
1
0
LINE
100
AcDbEntity
8
DoorBarRectangle
62
256
6
ByLayer
5
19a
100
AcDbLine
10
701.14
20
400.14
30
0
11
701.14
21
361.86
31
0
39
0
210
0
220
0
230
1
0
LINE
100
AcDbEntity
8
RepresentDoorBarRectangle
62
256
6
ByLayer
5
19b
100
AcDbLine
10
663.43
20
370
30
0
11
665.43
21
370
31
0
39
0
210
0
220
0
230
1
0
LINE
100
AcDbEntity
8
RepresentDoorBarRectangle
62
256
6
ByLayer
5
19c
100
AcDbLine
10
663.43
20
370
30
0
11
663.43
21
372
31
0
39
0
210
0
220
0
230
1
0
LINE
100
AcDbEntity
8
RepresentDoorBarRectangle
62
256
6
ByLayer
5
19d
100
AcDbLine
10
663.43
20
372
30
0
11
665.43
21
372
31
0
39
0
210
0
220
0
230
1
0
LINE
100
AcDbEntity
8
RepresentDoorBarRectangle
62
256
6
ByLayer
5
19e
100
AcDbLine
10
665.43
20
372
30
0
11
665.43
21
370
31
0
39
0
210
0
220
0
230
1
0
LINE
100
AcDbEntity
8
RepresentDoorBarRectangle
62
256
6
ByLayer
5
19f
100
AcDbLine
10
664
20
372
30
0
11
664
21
371
31
0
39
0
210
0
220
0
230
1
0
LINE
100
AcDbEntity
8
RepresentDoorBarRectangle
62
256
6
ByLayer
5
1a0
100
AcDbLine
10
664
20
371
30
0
11
664.86
21
371
31
0
39
0
210
0
220
0
230
1
0
LINE
100
AcDbEntity
8
RepresentDoorBarRectangle
62
256
6
ByLayer
5
1a1
100
AcDbLine
10
664.86
20
371
30
0
11
664.86
21
370
31
0
39
0
210
0
220
0
230
1
0
LINE
100
AcDbEntity
8
RepresentDoorBarRectangle
62
256
6
ByLayer
5
1a2
100
AcDbLine
10
663.43
20
390
30
0
11
665.43
21
390
31
0
39
0
210
0
220
0
230
1
0
LINE
100
AcDbEntity
8
RepresentDoorBarRectangle
62
256
6
ByLayer
5
1a3
100
AcDbLine
10
663.43
20
390
30
0
11
663.43
21
392
31
0
39
0
210
0
220
0
230
1
0
LINE
100
AcDbEntity
8
RepresentDoorBarRectangle
62
256
6
ByLayer
5
1a4
100
AcDbLine
10
663.43
20
392
30
0
11
665.43
21
392
31
0
39
0
210
0
220
0
230
1
0
LINE
100
AcDbEntity
8
RepresentDoorBarRectangle
62
256
6
ByLayer
5
1a5
100
AcDbLine
10
665.43
20
392
30
0
11
665.43
21
390
31
0
39
0
210
0
220
0
230
1
0
LINE
100
AcDbEntity
8
RepresentDoorBarRectangle
62
256
6
ByLayer
5
1a6
100
AcDbLine
10
664
20
392
30
0
11
664
21
391
31
0
39
0
210
0
220
0
230
1
0
LINE
100
AcDbEntity
8
RepresentDoorBarRectangle
62
256
6
ByLayer
5
1a7
100
AcDbLine
10
664
20
391
30
0
11
664.86
21
391
31
0
39
0
210
0
220
0
230
1
0
LINE
100
AcDbEntity
8
RepresentDoorBarRectangle
62
256
6
ByLayer
5
1a8
100
AcDbLine
10
664.86
20
391
30
0
11
664.86
21
390
31
0
39
0
210
0
220
0
230
1
0
LINE
100
AcDbEntity
8
RepresentDoorBarRectangle
62
256
6
ByLayer
5
1a9
100
AcDbLine
10
685.43
20
370
30
0
11
687.43
21
370
31
0
39
0
210
0
220
0
230
1
0
LINE
100
AcDbEntity
8
RepresentDoorBarRectangle
62
256
6
ByLayer
5
1aa
100
AcDbLine
10
685.43
20
370
30
0
11
685.43
21
372
31
0
39
0
210
0
220
0
230
1
0
LINE
100
AcDbEntity
8
RepresentDoorBarRectangle
62
256
6
ByLayer
5
1ab
100
AcDbLine
10
685.43
20
372
30
0
11
687.43
21
372
31
0
39
0
210
0
220
0
230
1
0
LINE
100
AcDbEntity
8
RepresentDoorBarRectangle
62
256
6
ByLayer
5
1ac
100
AcDbLine
10
687.43
20
372
30
0
11
687.43
21
370
31
0
39
0
210
0
220
0
230
1
0
LINE
100
AcDbEntity
8
RepresentDoorBarRectangle
62
256
6
ByLayer
5
1ad
100
AcDbLine
10
686
20
372
30
0
11
686
21
371
31
0
39
0
210
0
220
0
230
1
0
LINE
100
AcDbEntity
8
RepresentDoorBarRectangle
62
256
6
ByLayer
5
1ae
100
AcDbLine
10
686
20
371
30
0
11
686.86
21
371
31
0
39
0
210
0
220
0
230
1
0
LINE
100
AcDbEntity
8
RepresentDoorBarRectangle
62
256
6
ByLayer
5
1af
100
AcDbLine
10
686.86
20
371
30
0
11
686.86
21
370
31
0
39
0
210
0
220
0
230
1
0
LINE
100
AcDbEntity
8
RepresentDoorBarRectangle
62
256
6
ByLayer
5
1b0
100
AcDbLine
10
685.43
20
390
30
0
11
687.43
21
390
31
0
39
0
210
0
220
0
230
1
0
LINE
100
AcDbEntity
8
RepresentDoorBarRectangle
62
256
6
ByLayer
5
1b1
100
AcDbLine
10
685.43
20
390
30
0
11
685.43
21
392
31
0
39
0
210
0
220
0
230
1
0
LINE
100
AcDbEntity
8
RepresentDoorBarRectangle
62
256
6
ByLayer
5
1b2
100
AcDbLine
10
685.43
20
392
30
0
11
687.43
21
392
31
0
39
0
210
0
220
0
230
1
0
LINE
100
AcDbEntity
8
RepresentDoorBarRectangle
62
256
6
ByLayer
5
1b3
100
AcDbLine
10
687.43
20
392
30
0
11
687.43
21
390
31
0
39
0
210
0
220
0
230
1
0
LINE
100
AcDbEntity
8
RepresentDoorBarRectangle
62
256
6
ByLayer
5
1b4
100
AcDbLine
10
686
20
392
30
0
11
686
21
391
31
0
39
0
210
0
220
0
230
1
0
LINE
100
AcDbEntity
8
RepresentDoorBarRectangle
62
256
6
ByLayer
5
1b5
100
AcDbLine
10
686
20
391
30
0
11
686.86
21
391
31
0
39
0
210
0
220
0
230
1
0
LINE
100
AcDbEntity
8
RepresentDoorBarRectangle
62
256
6
ByLayer
5
1b6
100
AcDbLine
10
686.86
20
391
30
0
11
686.86
21
390
31
0
39
0
210
0
220
0
230
1
0
LINE
100
AcDbEntity
8
DoorRectangleLayer
62
256
6
ByLayer
5
1b7
100
AcDbLine
10
662
20
356.14
30
0
11
662.86
21
356.14
31
0
39
0
210
0
220
0
230
1
0
LINE
100
AcDbEntity
8
DoorRectangleLayer
62
256
6
ByLayer
5
1b8
100
AcDbLine
10
662
20
356.14
30
0
11
662
21
359
31
0
39
0
210
0
220
0
230
1
0
LINE
100
AcDbEntity
8
DoorRectangleLayer
62
256
6
ByLayer
5
1b9
100
AcDbLine
10
662
20
359
30
0
11
662.86
21
359
31
0
39
0
210
0
220
0
230
1
0
LINE
100
AcDbEntity
8
DoorRectangleLayer
62
256
6
ByLayer
5
1ba
100
AcDbLine
10
662.86
20
359
30
0
11
662.86
21
356.14
31
0
39
0
210
0
220
0
230
1
0
LINE
100
AcDbEntity
8
DoorRectangleLayer
62
256
6
ByLayer
5
1bb
100
AcDbLine
10
703.14
20
356.14
30
0
11
704
21
356.14
31
0
39
0
210
0
220
0
230
1
0
LINE
100
AcDbEntity
8
DoorRectangleLayer
62
256
6
ByLayer
5
1bc
100
AcDbLine
10
703.14
20
356.14
30
0
11
703.14
21
359
31
0
39
0
210
0
220
0
230
1
0
LINE
100
AcDbEntity
8
DoorRectangleLayer
62
256
6
ByLayer
5
1bd
100
AcDbLine
10
703.14
20
359
30
0
11
704
21
359
31
0
39
0
210
0
220
0
230
1
0
LINE
100
AcDbEntity
8
DoorRectangleLayer
62
256
6
ByLayer
5
1be
100
AcDbLine
10
704
20
359
30
0
11
704
21
356.14
31
0
39
0
210
0
220
0
230
1
0
LINE
100
AcDbEntity
8
DoubleDoorBarRectangle
62
256
6
ByLayer
5
1bf
100
AcDbLine
10
722
20
361
30
0
11
722
21
401
31
0
39
0
210
0
220
0
230
1
0
LINE
100
AcDbEntity
8
DoubleDoorBarRectangle
62
256
6
ByLayer
5
1c0
100
AcDbLine
10
722.5
20
361.86
30
0
11
722.5
21
400.14
31
0
39
0
210
0
220
0
230
1
0
LINE
100
AcDbEntity
8
DoubleDoorBarRectangle
62
256
6
ByLayer
5
1c1
100
AcDbLine
10
728
20
361.86
30
0
11
728
21
370
31
0
39
0
210
0
220
0
230
1
0
LINE
100
AcDbEntity
8
DoubleDoorBarRectangle
62
256
6
ByLayer
5
1c2
100
AcDbLine
10
728
20
372
30
0
11
728
21
390
31
0
39
0
210
0
220
0
230
1
0
LINE
100
AcDbEntity
8
DoubleDoorBarRectangle
62
256
6
ByLayer
5
1c3
100
AcDbLine
10
728
20
392
30
0
11
728
21
400.14
31
0
39
0
210
0
220
0
230
1
0
LINE
100
AcDbEntity
8
DoubleDoorBarRectangle
62
256
6
ByLayer
5
1c4
100
AcDbLine
10
728.5
20
361
30
0
11
728.5
21
370
31
0
39
0
210
0
220
0
230
1
0
LINE
100
AcDbEntity
8
DoubleDoorBarRectangle
62
256
6
ByLayer
5
1c5
100
AcDbLine
10
728.5
20
372
30
0
11
728.5
21
390
31
0
39
0
210
0
220
0
230
1
0
LINE
100
AcDbEntity
8
DoubleDoorBarRectangle
62
256
6
ByLayer
5
1c6
100
AcDbLine
10
728.5
20
392
30
0
11
728.5
21
400.14
31
0
39
0
210
0
220
0
230
1
0
LINE
100
AcDbEntity
8
DoorRectangleLayer
62
256
6
ByLayer
5
1c7
100
AcDbLine
10
704
20
359
30
0
11
746
21
359
31
0
39
0
210
0
220
0
230
1
0
LINE
100
AcDbEntity
8
DoorRectangleLayer
62
256
6
ByLayer
5
1c8
100
AcDbLine
10
704
20
359
30
0
11
704
21
403
31
0
39
0
210
0
220
0
230
1
0
LINE
100
AcDbEntity
8
DoorRectangleLayer
62
256
6
ByLayer
5
1c9
100
AcDbLine
10
704
20
403
30
0
11
746
21
403
31
0
39
0
210
0
220
0
230
1
0
LINE
100
AcDbEntity
8
DoorRectangleLayer
62
256
6
ByLayer
5
1ca
100
AcDbLine
10
746
20
403
30
0
11
746
21
359
31
0
39
0
210
0
220
0
230
1
0
LINE
100
AcDbEntity
8
DoorBarRectangle
62
256
6
ByLayer
5
1cb
100
AcDbLine
10
706
20
361
30
0
11
744
21
361
31
0
39
0
210
0
220
0
230
1
0
LINE
100
AcDbEntity
8
DoorBarRectangle
62
256
6
ByLayer
5
1cc
100
AcDbLine
10
706
20
361
30
0
11
706
21
370
31
0
39
0
210
0
220
0
230
1
0
LINE
100
AcDbEntity
8
DoorBarRectangle
62
256
6
ByLayer
5
1cd
100
AcDbLine
10
706
20
372
30
0
11
706
21
390
31
0
39
0
210
0
220
0
230
1
0
LINE
100
AcDbEntity
8
DoorBarRectangle
62
256
6
ByLayer
5
1ce
100
AcDbLine
10
706
20
392
30
0
11
706
21
401
31
0
39
0
210
0
220
0
230
1
0
LINE
100
AcDbEntity
8
DoorBarRectangle
62
256
6
ByLayer
5
1cf
100
AcDbLine
10
706
20
401
30
0
11
744
21
401
31
0
39
0
210
0
220
0
230
1
0
LINE
100
AcDbEntity
8
DoorBarRectangle
62
256
6
ByLayer
5
1d0
100
AcDbLine
10
744
20
401
30
0
11
744
21
361
31
0
39
0
210
0
220
0
230
1
0
LINE
100
AcDbEntity
8
DoorBarRectangle
62
256
6
ByLayer
5
1d1
100
AcDbLine
10
706.86
20
361.86
30
0
11
743.14
21
361.86
31
0
39
0
210
0
220
0
230
1
0
LINE
100
AcDbEntity
8
DoorBarRectangle
62
256
6
ByLayer
5
1d2
100
AcDbLine
10
706.86
20
361.86
30
0
11
706.86
21
370
31
0
39
0
210
0
220
0
230
1
0
LINE
100
AcDbEntity
8
DoorBarRectangle
62
256
6
ByLayer
5
1d3
100
AcDbLine
10
706.86
20
372
30
0
11
706.86
21
390
31
0
39
0
210
0
220
0
230
1
0
LINE
100
AcDbEntity
8
DoorBarRectangle
62
256
6
ByLayer
5
1d4
100
AcDbLine
10
706.86
20
392
30
0
11
706.86
21
400.14
31
0
39
0
210
0
220
0
230
1
0
LINE
100
AcDbEntity
8
DoorBarRectangle
62
256
6
ByLayer
5
1d5
100
AcDbLine
10
706.86
20
400.14
30
0
11
743.14
21
400.14
31
0
39
0
210
0
220
0
230
1
0
LINE
100
AcDbEntity
8
DoorBarRectangle
62
256
6
ByLayer
5
1d6
100
AcDbLine
10
743.14
20
400.14
30
0
11
743.14
21
361.86
31
0
39
0
210
0
220
0
230
1
0
LINE
100
AcDbEntity
8
RepresentDoorBarRectangle
62
256
6
ByLayer
5
1d7
100
AcDbLine
10
705.43
20
370
30
0
11
707.43
21
370
31
0
39
0
210
0
220
0
230
1
0
LINE
100
AcDbEntity
8
RepresentDoorBarRectangle
62
256
6
ByLayer
5
1d8
100
AcDbLine
10
705.43
20
370
30
0
11
705.43
21
372
31
0
39
0
210
0
220
0
230
1
0
LINE
100
AcDbEntity
8
RepresentDoorBarRectangle
62
256
6
ByLayer
5
1d9
100
AcDbLine
10
705.43
20
372
30
0
11
707.43
21
372
31
0
39
0
210
0
220
0
230
1
0
LINE
100
AcDbEntity
8
RepresentDoorBarRectangle
62
256
6
ByLayer
5
1da
100
AcDbLine
10
707.43
20
372
30
0
11
707.43
21
370
31
0
39
0
210
0
220
0
230
1
0
LINE
100
AcDbEntity
8
RepresentDoorBarRectangle
62
256
6
ByLayer
5
1db
100
AcDbLine
10
706
20
372
30
0
11
706
21
371
31
0
39
0
210
0
220
0
230
1
0
LINE
100
AcDbEntity
8
RepresentDoorBarRectangle
62
256
6
ByLayer
5
1dc
100
AcDbLine
10
706
20
371
30
0
11
706.86
21
371
31
0
39
0
210
0
220
0
230
1
0
LINE
100
AcDbEntity
8
RepresentDoorBarRectangle
62
256
6
ByLayer
5
1dd
100
AcDbLine
10
706.86
20
371
30
0
11
706.86
21
370
31
0
39
0
210
0
220
0
230
1
0
LINE
100
AcDbEntity
8
RepresentDoorBarRectangle
62
256
6
ByLayer
5
1de
100
AcDbLine
10
705.43
20
390
30
0
11
707.43
21
390
31
0
39
0
210
0
220
0
230
1
0
LINE
100
AcDbEntity
8
RepresentDoorBarRectangle
62
256
6
ByLayer
5
1df
100
AcDbLine
10
705.43
20
390
30
0
11
705.43
21
392
31
0
39
0
210
0
220
0
230
1
0
LINE
100
AcDbEntity
8
RepresentDoorBarRectangle
62
256
6
ByLayer
5
1e0
100
AcDbLine
10
705.43
20
392
30
0
11
707.43
21
392
31
0
39
0
210
0
220
0
230
1
0
LINE
100
AcDbEntity
8
RepresentDoorBarRectangle
62
256
6
ByLayer
5
1e1
100
AcDbLine
10
707.43
20
392
30
0
11
707.43
21
390
31
0
39
0
210
0
220
0
230
1
0
LINE
100
AcDbEntity
8
RepresentDoorBarRectangle
62
256
6
ByLayer
5
1e2
100
AcDbLine
10
706
20
392
30
0
11
706
21
391
31
0
39
0
210
0
220
0
230
1
0
LINE
100
AcDbEntity
8
RepresentDoorBarRectangle
62
256
6
ByLayer
5
1e3
100
AcDbLine
10
706
20
391
30
0
11
706.86
21
391
31
0
39
0
210
0
220
0
230
1
0
LINE
100
AcDbEntity
8
RepresentDoorBarRectangle
62
256
6
ByLayer
5
1e4
100
AcDbLine
10
706.86
20
391
30
0
11
706.86
21
390
31
0
39
0
210
0
220
0
230
1
0
LINE
100
AcDbEntity
8
RepresentDoorBarRectangle
62
256
6
ByLayer
5
1e5
100
AcDbLine
10
727.43
20
370
30
0
11
729.43
21
370
31
0
39
0
210
0
220
0
230
1
0
LINE
100
AcDbEntity
8
RepresentDoorBarRectangle
62
256
6
ByLayer
5
1e6
100
AcDbLine
10
727.43
20
370
30
0
11
727.43
21
372
31
0
39
0
210
0
220
0
230
1
0
LINE
100
AcDbEntity
8
RepresentDoorBarRectangle
62
256
6
ByLayer
5
1e7
100
AcDbLine
10
727.43
20
372
30
0
11
729.43
21
372
31
0
39
0
210
0
220
0
230
1
0
LINE
100
AcDbEntity
8
RepresentDoorBarRectangle
62
256
6
ByLayer
5
1e8
100
AcDbLine
10
729.43
20
372
30
0
11
729.43
21
370
31
0
39
0
210
0
220
0
230
1
0
LINE
100
AcDbEntity
8
RepresentDoorBarRectangle
62
256
6
ByLayer
5
1e9
100
AcDbLine
10
728
20
372
30
0
11
728
21
371
31
0
39
0
210
0
220
0
230
1
0
LINE
100
AcDbEntity
8
RepresentDoorBarRectangle
62
256
6
ByLayer
5
1ea
100
AcDbLine
10
728
20
371
30
0
11
728.86
21
371
31
0
39
0
210
0
220
0
230
1
0
LINE
100
AcDbEntity
8
RepresentDoorBarRectangle
62
256
6
ByLayer
5
1eb
100
AcDbLine
10
728.86
20
371
30
0
11
728.86
21
370
31
0
39
0
210
0
220
0
230
1
0
LINE
100
AcDbEntity
8
RepresentDoorBarRectangle
62
256
6
ByLayer
5
1ec
100
AcDbLine
10
727.43
20
390
30
0
11
729.43
21
390
31
0
39
0
210
0
220
0
230
1
0
LINE
100
AcDbEntity
8
RepresentDoorBarRectangle
62
256
6
ByLayer
5
1ed
100
AcDbLine
10
727.43
20
390
30
0
11
727.43
21
392
31
0
39
0
210
0
220
0
230
1
0
LINE
100
AcDbEntity
8
RepresentDoorBarRectangle
62
256
6
ByLayer
5
1ee
100
AcDbLine
10
727.43
20
392
30
0
11
729.43
21
392
31
0
39
0
210
0
220
0
230
1
0
LINE
100
AcDbEntity
8
RepresentDoorBarRectangle
62
256
6
ByLayer
5
1ef
100
AcDbLine
10
729.43
20
392
30
0
11
729.43
21
390
31
0
39
0
210
0
220
0
230
1
0
LINE
100
AcDbEntity
8
RepresentDoorBarRectangle
62
256
6
ByLayer
5
1f0
100
AcDbLine
10
728
20
392
30
0
11
728
21
391
31
0
39
0
210
0
220
0
230
1
0
LINE
100
AcDbEntity
8
RepresentDoorBarRectangle
62
256
6
ByLayer
5
1f1
100
AcDbLine
10
728
20
391
30
0
11
728.86
21
391
31
0
39
0
210
0
220
0
230
1
0
LINE
100
AcDbEntity
8
RepresentDoorBarRectangle
62
256
6
ByLayer
5
1f2
100
AcDbLine
10
728.86
20
391
30
0
11
728.86
21
390
31
0
39
0
210
0
220
0
230
1
0
LINE
100
AcDbEntity
8
DoorRectangleLayer
62
256
6
ByLayer
5
1f3
100
AcDbLine
10
704
20
356.14
30
0
11
704.86
21
356.14
31
0
39
0
210
0
220
0
230
1
0
LINE
100
AcDbEntity
8
DoorRectangleLayer
62
256
6
ByLayer
5
1f4
100
AcDbLine
10
704
20
356.14
30
0
11
704
21
359
31
0
39
0
210
0
220
0
230
1
0
LINE
100
AcDbEntity
8
DoorRectangleLayer
62
256
6
ByLayer
5
1f5
100
AcDbLine
10
704
20
359
30
0
11
704.86
21
359
31
0
39
0
210
0
220
0
230
1
0
LINE
100
AcDbEntity
8
DoorRectangleLayer
62
256
6
ByLayer
5
1f6
100
AcDbLine
10
704.86
20
359
30
0
11
704.86
21
356.14
31
0
39
0
210
0
220
0
230
1
0
LINE
100
AcDbEntity
8
DoorRectangleLayer
62
256
6
ByLayer
5
1f7
100
AcDbLine
10
745.14
20
356.14
30
0
11
746
21
356.14
31
0
39
0
210
0
220
0
230
1
0
LINE
100
AcDbEntity
8
DoorRectangleLayer
62
256
6
ByLayer
5
1f8
100
AcDbLine
10
745.14
20
356.14
30
0
11
745.14
21
359
31
0
39
0
210
0
220
0
230
1
0
LINE
100
AcDbEntity
8
DoorRectangleLayer
62
256
6
ByLayer
5
1f9
100
AcDbLine
10
745.14
20
359
30
0
11
746
21
359
31
0
39
0
210
0
220
0
230
1
0
LINE
100
AcDbEntity
8
DoorRectangleLayer
62
256
6
ByLayer
5
1fa
100
AcDbLine
10
746
20
359
30
0
11
746
21
356.14
31
0
39
0
210
0
220
0
230
1
0
LINE
100
AcDbEntity
8
DoubleDoorBarRectangle
62
256
6
ByLayer
5
1fb
100
AcDbLine
10
764
20
361
30
0
11
764
21
401
31
0
39
0
210
0
220
0
230
1
0
LINE
100
AcDbEntity
8
DoubleDoorBarRectangle
62
256
6
ByLayer
5
1fc
100
AcDbLine
10
764.5
20
361.86
30
0
11
764.5
21
400.14
31
0
39
0
210
0
220
0
230
1
0
LINE
100
AcDbEntity
8
DoubleDoorBarRectangle
62
256
6
ByLayer
5
1fd
100
AcDbLine
10
770
20
361.86
30
0
11
770
21
370
31
0
39
0
210
0
220
0
230
1
0
LINE
100
AcDbEntity
8
DoubleDoorBarRectangle
62
256
6
ByLayer
5
1fe
100
AcDbLine
10
770
20
372
30
0
11
770
21
390
31
0
39
0
210
0
220
0
230
1
0
LINE
100
AcDbEntity
8
DoubleDoorBarRectangle
62
256
6
ByLayer
5
1ff
100
AcDbLine
10
770
20
392
30
0
11
770
21
400.14
31
0
39
0
210
0
220
0
230
1
0
LINE
100
AcDbEntity
8
DoubleDoorBarRectangle
62
256
6
ByLayer
5
200
100
AcDbLine
10
770.5
20
361
30
0
11
770.5
21
370
31
0
39
0
210
0
220
0
230
1
0
LINE
100
AcDbEntity
8
DoubleDoorBarRectangle
62
256
6
ByLayer
5
201
100
AcDbLine
10
770.5
20
372
30
0
11
770.5
21
390
31
0
39
0
210
0
220
0
230
1
0
LINE
100
AcDbEntity
8
DoubleDoorBarRectangle
62
256
6
ByLayer
5
202
100
AcDbLine
10
770.5
20
392
30
0
11
770.5
21
400.14
31
0
39
0
210
0
220
0
230
1
0
LINE
100
AcDbEntity
8
DoorRectangleLayer
62
256
6
ByLayer
5
203
100
AcDbLine
10
746
20
359
30
0
11
788
21
359
31
0
39
0
210
0
220
0
230
1
0
LINE
100
AcDbEntity
8
DoorRectangleLayer
62
256
6
ByLayer
5
204
100
AcDbLine
10
746
20
359
30
0
11
746
21
403
31
0
39
0
210
0
220
0
230
1
0
LINE
100
AcDbEntity
8
DoorRectangleLayer
62
256
6
ByLayer
5
205
100
AcDbLine
10
746
20
403
30
0
11
788
21
403
31
0
39
0
210
0
220
0
230
1
0
LINE
100
AcDbEntity
8
DoorRectangleLayer
62
256
6
ByLayer
5
206
100
AcDbLine
10
788
20
403
30
0
11
788
21
359
31
0
39
0
210
0
220
0
230
1
0
LINE
100
AcDbEntity
8
DoorBarRectangle
62
256
6
ByLayer
5
207
100
AcDbLine
10
748
20
361
30
0
11
786
21
361
31
0
39
0
210
0
220
0
230
1
0
LINE
100
AcDbEntity
8
DoorBarRectangle
62
256
6
ByLayer
5
208
100
AcDbLine
10
748
20
361
30
0
11
748
21
370
31
0
39
0
210
0
220
0
230
1
0
LINE
100
AcDbEntity
8
DoorBarRectangle
62
256
6
ByLayer
5
209
100
AcDbLine
10
748
20
372
30
0
11
748
21
390
31
0
39
0
210
0
220
0
230
1
0
LINE
100
AcDbEntity
8
DoorBarRectangle
62
256
6
ByLayer
5
20a
100
AcDbLine
10
748
20
392
30
0
11
748
21
401
31
0
39
0
210
0
220
0
230
1
0
LINE
100
AcDbEntity
8
DoorBarRectangle
62
256
6
ByLayer
5
20b
100
AcDbLine
10
748
20
401
30
0
11
786
21
401
31
0
39
0
210
0
220
0
230
1
0
LINE
100
AcDbEntity
8
DoorBarRectangle
62
256
6
ByLayer
5
20c
100
AcDbLine
10
786
20
401
30
0
11
786
21
361
31
0
39
0
210
0
220
0
230
1
0
LINE
100
AcDbEntity
8
DoorBarRectangle
62
256
6
ByLayer
5
20d
100
AcDbLine
10
748.86
20
361.86
30
0
11
785.14
21
361.86
31
0
39
0
210
0
220
0
230
1
0
LINE
100
AcDbEntity
8
DoorBarRectangle
62
256
6
ByLayer
5
20e
100
AcDbLine
10
748.86
20
361.86
30
0
11
748.86
21
370
31
0
39
0
210
0
220
0
230
1
0
LINE
100
AcDbEntity
8
DoorBarRectangle
62
256
6
ByLayer
5
20f
100
AcDbLine
10
748.86
20
372
30
0
11
748.86
21
390
31
0
39
0
210
0
220
0
230
1
0
LINE
100
AcDbEntity
8
DoorBarRectangle
62
256
6
ByLayer
5
210
100
AcDbLine
10
748.86
20
392
30
0
11
748.86
21
400.14
31
0
39
0
210
0
220
0
230
1
0
LINE
100
AcDbEntity
8
DoorBarRectangle
62
256
6
ByLayer
5
211
100
AcDbLine
10
748.86
20
400.14
30
0
11
785.14
21
400.14
31
0
39
0
210
0
220
0
230
1
0
LINE
100
AcDbEntity
8
DoorBarRectangle
62
256
6
ByLayer
5
212
100
AcDbLine
10
785.14
20
400.14
30
0
11
785.14
21
361.86
31
0
39
0
210
0
220
0
230
1
0
LINE
100
AcDbEntity
8
RepresentDoorBarRectangle
62
256
6
ByLayer
5
213
100
AcDbLine
10
747.43
20
370
30
0
11
749.43
21
370
31
0
39
0
210
0
220
0
230
1
0
LINE
100
AcDbEntity
8
RepresentDoorBarRectangle
62
256
6
ByLayer
5
214
100
AcDbLine
10
747.43
20
370
30
0
11
747.43
21
372
31
0
39
0
210
0
220
0
230
1
0
LINE
100
AcDbEntity
8
RepresentDoorBarRectangle
62
256
6
ByLayer
5
215
100
AcDbLine
10
747.43
20
372
30
0
11
749.43
21
372
31
0
39
0
210
0
220
0
230
1
0
LINE
100
AcDbEntity
8
RepresentDoorBarRectangle
62
256
6
ByLayer
5
216
100
AcDbLine
10
749.43
20
372
30
0
11
749.43
21
370
31
0
39
0
210
0
220
0
230
1
0
LINE
100
AcDbEntity
8
RepresentDoorBarRectangle
62
256
6
ByLayer
5
217
100
AcDbLine
10
748
20
372
30
0
11
748
21
371
31
0
39
0
210
0
220
0
230
1
0
LINE
100
AcDbEntity
8
RepresentDoorBarRectangle
62
256
6
ByLayer
5
218
100
AcDbLine
10
748
20
371
30
0
11
748.86
21
371
31
0
39
0
210
0
220
0
230
1
0
LINE
100
AcDbEntity
8
RepresentDoorBarRectangle
62
256
6
ByLayer
5
219
100
AcDbLine
10
748.86
20
371
30
0
11
748.86
21
370
31
0
39
0
210
0
220
0
230
1
0
LINE
100
AcDbEntity
8
RepresentDoorBarRectangle
62
256
6
ByLayer
5
21a
100
AcDbLine
10
747.43
20
390
30
0
11
749.43
21
390
31
0
39
0
210
0
220
0
230
1
0
LINE
100
AcDbEntity
8
RepresentDoorBarRectangle
62
256
6
ByLayer
5
21b
100
AcDbLine
10
747.43
20
390
30
0
11
747.43
21
392
31
0
39
0
210
0
220
0
230
1
0
LINE
100
AcDbEntity
8
RepresentDoorBarRectangle
62
256
6
ByLayer
5
21c
100
AcDbLine
10
747.43
20
392
30
0
11
749.43
21
392
31
0
39
0
210
0
220
0
230
1
0
LINE
100
AcDbEntity
8
RepresentDoorBarRectangle
62
256
6
ByLayer
5
21d
100
AcDbLine
10
749.43
20
392
30
0
11
749.43
21
390
31
0
39
0
210
0
220
0
230
1
0
LINE
100
AcDbEntity
8
RepresentDoorBarRectangle
62
256
6
ByLayer
5
21e
100
AcDbLine
10
748
20
392
30
0
11
748
21
391
31
0
39
0
210
0
220
0
230
1
0
LINE
100
AcDbEntity
8
RepresentDoorBarRectangle
62
256
6
ByLayer
5
21f
100
AcDbLine
10
748
20
391
30
0
11
748.86
21
391
31
0
39
0
210
0
220
0
230
1
0
LINE
100
AcDbEntity
8
RepresentDoorBarRectangle
62
256
6
ByLayer
5
220
100
AcDbLine
10
748.86
20
391
30
0
11
748.86
21
390
31
0
39
0
210
0
220
0
230
1
0
LINE
100
AcDbEntity
8
RepresentDoorBarRectangle
62
256
6
ByLayer
5
221
100
AcDbLine
10
769.43
20
370
30
0
11
771.43
21
370
31
0
39
0
210
0
220
0
230
1
0
LINE
100
AcDbEntity
8
RepresentDoorBarRectangle
62
256
6
ByLayer
5
222
100
AcDbLine
10
769.43
20
370
30
0
11
769.43
21
372
31
0
39
0
210
0
220
0
230
1
0
LINE
100
AcDbEntity
8
RepresentDoorBarRectangle
62
256
6
ByLayer
5
223
100
AcDbLine
10
769.43
20
372
30
0
11
771.43
21
372
31
0
39
0
210
0
220
0
230
1
0
LINE
100
AcDbEntity
8
RepresentDoorBarRectangle
62
256
6
ByLayer
5
224
100
AcDbLine
10
771.43
20
372
30
0
11
771.43
21
370
31
0
39
0
210
0
220
0
230
1
0
LINE
100
AcDbEntity
8
RepresentDoorBarRectangle
62
256
6
ByLayer
5
225
100
AcDbLine
10
770
20
372
30
0
11
770
21
371
31
0
39
0
210
0
220
0
230
1
0
LINE
100
AcDbEntity
8
RepresentDoorBarRectangle
62
256
6
ByLayer
5
226
100
AcDbLine
10
770
20
371
30
0
11
770.86
21
371
31
0
39
0
210
0
220
0
230
1
0
LINE
100
AcDbEntity
8
RepresentDoorBarRectangle
62
256
6
ByLayer
5
227
100
AcDbLine
10
770.86
20
371
30
0
11
770.86
21
370
31
0
39
0
210
0
220
0
230
1
0
LINE
100
AcDbEntity
8
RepresentDoorBarRectangle
62
256
6
ByLayer
5
228
100
AcDbLine
10
769.43
20
390
30
0
11
771.43
21
390
31
0
39
0
210
0
220
0
230
1
0
LINE
100
AcDbEntity
8
RepresentDoorBarRectangle
62
256
6
ByLayer
5
229
100
AcDbLine
10
769.43
20
390
30
0
11
769.43
21
392
31
0
39
0
210
0
220
0
230
1
0
LINE
100
AcDbEntity
8
RepresentDoorBarRectangle
62
256
6
ByLayer
5
22a
100
AcDbLine
10
769.43
20
392
30
0
11
771.43
21
392
31
0
39
0
210
0
220
0
230
1
0
LINE
100
AcDbEntity
8
RepresentDoorBarRectangle
62
256
6
ByLayer
5
22b
100
AcDbLine
10
771.43
20
392
30
0
11
771.43
21
390
31
0
39
0
210
0
220
0
230
1
0
LINE
100
AcDbEntity
8
RepresentDoorBarRectangle
62
256
6
ByLayer
5
22c
100
AcDbLine
10
770
20
392
30
0
11
770
21
391
31
0
39
0
210
0
220
0
230
1
0
LINE
100
AcDbEntity
8
RepresentDoorBarRectangle
62
256
6
ByLayer
5
22d
100
AcDbLine
10
770
20
391
30
0
11
770.86
21
391
31
0
39
0
210
0
220
0
230
1
0
LINE
100
AcDbEntity
8
RepresentDoorBarRectangle
62
256
6
ByLayer
5
22e
100
AcDbLine
10
770.86
20
391
30
0
11
770.86
21
390
31
0
39
0
210
0
220
0
230
1
0
LINE
100
AcDbEntity
8
DoorRectangleLayer
62
256
6
ByLayer
5
22f
100
AcDbLine
10
746
20
356.14
30
0
11
746.86
21
356.14
31
0
39
0
210
0
220
0
230
1
0
LINE
100
AcDbEntity
8
DoorRectangleLayer
62
256
6
ByLayer
5
230
100
AcDbLine
10
746
20
356.14
30
0
11
746
21
359
31
0
39
0
210
0
220
0
230
1
0
LINE
100
AcDbEntity
8
DoorRectangleLayer
62
256
6
ByLayer
5
231
100
AcDbLine
10
746
20
359
30
0
11
746.86
21
359
31
0
39
0
210
0
220
0
230
1
0
LINE
100
AcDbEntity
8
DoorRectangleLayer
62
256
6
ByLayer
5
232
100
AcDbLine
10
746.86
20
359
30
0
11
746.86
21
356.14
31
0
39
0
210
0
220
0
230
1
0
LINE
100
AcDbEntity
8
DoorRectangleLayer
62
256
6
ByLayer
5
233
100
AcDbLine
10
787.14
20
356.14
30
0
11
788
21
356.14
31
0
39
0
210
0
220
0
230
1
0
LINE
100
AcDbEntity
8
DoorRectangleLayer
62
256
6
ByLayer
5
234
100
AcDbLine
10
787.14
20
356.14
30
0
11
787.14
21
359
31
0
39
0
210
0
220
0
230
1
0
LINE
100
AcDbEntity
8
DoorRectangleLayer
62
256
6
ByLayer
5
235
100
AcDbLine
10
787.14
20
359
30
0
11
788
21
359
31
0
39
0
210
0
220
0
230
1
0
LINE
100
AcDbEntity
8
DoorRectangleLayer
62
256
6
ByLayer
5
236
100
AcDbLine
10
788
20
359
30
0
11
788
21
356.14
31
0
39
0
210
0
220
0
230
1
0
LINE
100
AcDbEntity
8
dimensionLayer
62
256
6
ByLayer
5
237
100
AcDbLine
10
602
20
359
30
0
11
594
21
359
31
0
39
0
210
0
220
0
230
1
0
LINE
100
AcDbEntity
8
dimensionLayer
62
256
6
ByLayer
5
238
100
AcDbLine
10
602
20
365
30
0
11
594
21
365
31
0
39
0
210
0
220
0
230
1
0
LINE
100
AcDbEntity
8
dimensionLayer
62
256
6
ByLayer
5
239
100
AcDbLine
10
595
20
359
30
0
11
595
21
360.5
31
0
39
0
210
0
220
0
230
1
0
LINE
100
AcDbEntity
8
dimensionLayer
62
256
6
ByLayer
5
23a
100
AcDbLine
10
595
20
365
30
0
11
595
21
363.5
31
0
39
0
210
0
220
0
230
1
0
LINE
100
AcDbEntity
8
dimensionLayer
62
256
6
ByLayer
5
23b
100
AcDbLine
10
595
20
359
30
0
11
594.8
21
359.2
31
0
39
0
210
0
220
0
230
1
0
LINE
100
AcDbEntity
8
dimensionLayer
62
256
6
ByLayer
5
23c
100
AcDbLine
10
595
20
359
30
0
11
595.2
21
359.2
31
0
39
0
210
0
220
0
230
1
0
LINE
100
AcDbEntity
8
dimensionLayer
62
256
6
ByLayer
5
23d
100
AcDbLine
10
595
20
365
30
0
11
594.8
21
364.8
31
0
39
0
210
0
220
0
230
1
0
LINE
100
AcDbEntity
8
dimensionLayer
62
256
6
ByLayer
5
23e
100
AcDbLine
10
595
20
365
30
0
11
595.2
21
364.8
31
0
39
0
210
0
220
0
230
1
0
LINE
100
AcDbEntity
8
dimensionLayer
62
256
6
ByLayer
5
23f
100
AcDbLine
10
602
20
365
30
0
11
594
21
365
31
0
39
0
210
0
220
0
230
1
0
LINE
100
AcDbEntity
8
dimensionLayer
62
256
6
ByLayer
5
240
100
AcDbLine
10
602
20
397
30
0
11
594
21
397
31
0
39
0
210
0
220
0
230
1
0
LINE
100
AcDbEntity
8
dimensionLayer
62
256
6
ByLayer
5
241
100
AcDbLine
10
595
20
365
30
0
11
595
21
379.5
31
0
39
0
210
0
220
0
230
1
0
LINE
100
AcDbEntity
8
dimensionLayer
62
256
6
ByLayer
5
242
100
AcDbLine
10
595
20
397
30
0
11
595
21
382.5
31
0
39
0
210
0
220
0
230
1
0
LINE
100
AcDbEntity
8
dimensionLayer
62
256
6
ByLayer
5
243
100
AcDbLine
10
595
20
365
30
0
11
594.8
21
365.2
31
0
39
0
210
0
220
0
230
1
0
LINE
100
AcDbEntity
8
dimensionLayer
62
256
6
ByLayer
5
244
100
AcDbLine
10
595
20
365
30
0
11
595.2
21
365.2
31
0
39
0
210
0
220
0
230
1
0
LINE
100
AcDbEntity
8
dimensionLayer
62
256
6
ByLayer
5
245
100
AcDbLine
10
595
20
397
30
0
11
594.8
21
396.8
31
0
39
0
210
0
220
0
230
1
0
LINE
100
AcDbEntity
8
dimensionLayer
62
256
6
ByLayer
5
246
100
AcDbLine
10
595
20
397
30
0
11
595.2
21
396.8
31
0
39
0
210
0
220
0
230
1
0
LINE
100
AcDbEntity
8
dimensionLayer
62
256
6
ByLayer
5
247
100
AcDbLine
10
788
20
353
30
0
11
796
21
353
31
0
39
0
210
0
220
0
230
1
0
LINE
100
AcDbEntity
8
dimensionLayer
62
256
6
ByLayer
5
248
100
AcDbLine
10
788
20
359
30
0
11
796
21
359
31
0
39
0
210
0
220
0
230
1
0
LINE
100
AcDbEntity
8
dimensionLayer
62
256
6
ByLayer
5
249
100
AcDbLine
10
795
20
353
30
0
11
795
21
354.5
31
0
39
0
210
0
220
0
230
1
0
LINE
100
AcDbEntity
8
dimensionLayer
62
256
6
ByLayer
5
24a
100
AcDbLine
10
795
20
359
30
0
11
795
21
357.5
31
0
39
0
210
0
220
0
230
1
0
LINE
100
AcDbEntity
8
dimensionLayer
62
256
6
ByLayer
5
24b
100
AcDbLine
10
795
20
353
30
0
11
794.8
21
353.2
31
0
39
0
210
0
220
0
230
1
0
LINE
100
AcDbEntity
8
dimensionLayer
62
256
6
ByLayer
5
24c
100
AcDbLine
10
795
20
353
30
0
11
795.2
21
353.2
31
0
39
0
210
0
220
0
230
1
0
LINE
100
AcDbEntity
8
dimensionLayer
62
256
6
ByLayer
5
24d
100
AcDbLine
10
795
20
359
30
0
11
794.8
21
358.8
31
0
39
0
210
0
220
0
230
1
0
LINE
100
AcDbEntity
8
dimensionLayer
62
256
6
ByLayer
5
24e
100
AcDbLine
10
795
20
359
30
0
11
795.2
21
358.8
31
0
39
0
210
0
220
0
230
1
0
LINE
100
AcDbEntity
8
dimensionLayer
62
256
6
ByLayer
5
24f
100
AcDbLine
10
788
20
359
30
0
11
796
21
359
31
0
39
0
210
0
220
0
230
1
0
LINE
100
AcDbEntity
8
dimensionLayer
62
256
6
ByLayer
5
250
100
AcDbLine
10
788
20
370
30
0
11
796
21
370
31
0
39
0
210
0
220
0
230
1
0
LINE
100
AcDbEntity
8
dimensionLayer
62
256
6
ByLayer
5
251
100
AcDbLine
10
795
20
359
30
0
11
795
21
363
31
0
39
0
210
0
220
0
230
1
0
LINE
100
AcDbEntity
8
dimensionLayer
62
256
6
ByLayer
5
252
100
AcDbLine
10
795
20
370
30
0
11
795
21
366
31
0
39
0
210
0
220
0
230
1
0
LINE
100
AcDbEntity
8
dimensionLayer
62
256
6
ByLayer
5
253
100
AcDbLine
10
795
20
359
30
0
11
794.8
21
359.2
31
0
39
0
210
0
220
0
230
1
0
LINE
100
AcDbEntity
8
dimensionLayer
62
256
6
ByLayer
5
254
100
AcDbLine
10
795
20
359
30
0
11
795.2
21
359.2
31
0
39
0
210
0
220
0
230
1
0
LINE
100
AcDbEntity
8
dimensionLayer
62
256
6
ByLayer
5
255
100
AcDbLine
10
795
20
370
30
0
11
794.8
21
369.8
31
0
39
0
210
0
220
0
230
1
0
LINE
100
AcDbEntity
8
dimensionLayer
62
256
6
ByLayer
5
256
100
AcDbLine
10
795
20
370
30
0
11
795.2
21
369.8
31
0
39
0
210
0
220
0
230
1
0
LINE
100
AcDbEntity
8
dimensionLayer
62
256
6
ByLayer
5
257
100
AcDbLine
10
788
20
370
30
0
11
796
21
370
31
0
39
0
210
0
220
0
230
1
0
LINE
100
AcDbEntity
8
dimensionLayer
62
256
6
ByLayer
5
258
100
AcDbLine
10
788
20
392
30
0
11
796
21
392
31
0
39
0
210
0
220
0
230
1
0
LINE
100
AcDbEntity
8
dimensionLayer
62
256
6
ByLayer
5
259
100
AcDbLine
10
795
20
370
30
0
11
795
21
379.5
31
0
39
0
210
0
220
0
230
1
0
LINE
100
AcDbEntity
8
dimensionLayer
62
256
6
ByLayer
5
25a
100
AcDbLine
10
795
20
392
30
0
11
795
21
382.5
31
0
39
0
210
0
220
0
230
1
0
LINE
100
AcDbEntity
8
dimensionLayer
62
256
6
ByLayer
5
25b
100
AcDbLine
10
795
20
370
30
0
11
794.8
21
370.2
31
0
39
0
210
0
220
0
230
1
0
LINE
100
AcDbEntity
8
dimensionLayer
62
256
6
ByLayer
5
25c
100
AcDbLine
10
795
20
370
30
0
11
795.2
21
370.2
31
0
39
0
210
0
220
0
230
1
0
LINE
100
AcDbEntity
8
dimensionLayer
62
256
6
ByLayer
5
25d
100
AcDbLine
10
795
20
392
30
0
11
794.8
21
391.8
31
0
39
0
210
0
220
0
230
1
0
LINE
100
AcDbEntity
8
dimensionLayer
62
256
6
ByLayer
5
25e
100
AcDbLine
10
795
20
392
30
0
11
795.2
21
391.8
31
0
39
0
210
0
220
0
230
1
0
LINE
100
AcDbEntity
8
dimensionLayer
62
256
6
ByLayer
5
25f
100
AcDbLine
10
788
20
359
30
0
11
803
21
359
31
0
39
0
210
0
220
0
230
1
0
LINE
100
AcDbEntity
8
dimensionLayer
62
256
6
ByLayer
5
260
100
AcDbLine
10
788
20
403
30
0
11
803
21
403
31
0
39
0
210
0
220
0
230
1
0
LINE
100
AcDbEntity
8
dimensionLayer
62
256
6
ByLayer
5
261
100
AcDbLine
10
801.125
20
359
30
0
11
801.125
21
379.5
31
0
39
0
210
0
220
0
230
1
0
LINE
100
AcDbEntity
8
dimensionLayer
62
256
6
ByLayer
5
262
100
AcDbLine
10
801.125
20
403
30
0
11
801.125
21
382.5
31
0
39
0
210
0
220
0
230
1
0
LINE
100
AcDbEntity
8
dimensionLayer
62
256
6
ByLayer
5
263
100
AcDbLine
10
801.125
20
359
30
0
11
800.925
21
359.2
31
0
39
0
210
0
220
0
230
1
0
LINE
100
AcDbEntity
8
dimensionLayer
62
256
6
ByLayer
5
264
100
AcDbLine
10
801.125
20
359
30
0
11
801.325
21
359.2
31
0
39
0
210
0
220
0
230
1
0
LINE
100
AcDbEntity
8
dimensionLayer
62
256
6
ByLayer
5
265
100
AcDbLine
10
801.125
20
403
30
0
11
800.925
21
402.8
31
0
39
0
210
0
220
0
230
1
0
LINE
100
AcDbEntity
8
dimensionLayer
62
256
6
ByLayer
5
266
100
AcDbLine
10
801.125
20
403
30
0
11
801.325
21
402.8
31
0
39
0
210
0
220
0
230
1
0
LINE
100
AcDbEntity
8
dimensionLayer
62
256
6
ByLayer
5
267
100
AcDbLine
10
788
20
353
30
0
11
811
21
353
31
0
39
0
210
0
220
0
230
1
0
LINE
100
AcDbEntity
8
dimensionLayer
62
256
6
ByLayer
5
268
100
AcDbLine
10
788
20
403
30
0
11
811
21
403
31
0
39
0
210
0
220
0
230
1
0
LINE
100
AcDbEntity
8
dimensionLayer
62
256
6
ByLayer
5
269
100
AcDbLine
10
808.125
20
353
30
0
11
808.125
21
376.5
31
0
39
0
210
0
220
0
230
1
0
LINE
100
AcDbEntity
8
dimensionLayer
62
256
6
ByLayer
5
26a
100
AcDbLine
10
808.125
20
403
30
0
11
808.125
21
379.5
31
0
39
0
210
0
220
0
230
1
0
LINE
100
AcDbEntity
8
dimensionLayer
62
256
6
ByLayer
5
26b
100
AcDbLine
10
808.125
20
353
30
0
11
807.925
21
353.2
31
0
39
0
210
0
220
0
230
1
0
LINE
100
AcDbEntity
8
dimensionLayer
62
256
6
ByLayer
5
26c
100
AcDbLine
10
808.125
20
353
30
0
11
808.325
21
353.2
31
0
39
0
210
0
220
0
230
1
0
LINE
100
AcDbEntity
8
dimensionLayer
62
256
6
ByLayer
5
26d
100
AcDbLine
10
808.125
20
403
30
0
11
807.925
21
402.8
31
0
39
0
210
0
220
0
230
1
0
LINE
100
AcDbEntity
8
dimensionLayer
62
256
6
ByLayer
5
26e
100
AcDbLine
10
808.125
20
403
30
0
11
808.325
21
402.8
31
0
39
0
210
0
220
0
230
1
0
LINE
100
AcDbEntity
8
dimensionLayer
62
256
6
ByLayer
5
26f
100
AcDbLine
10
602
20
359
30
0
11
602
21
349
31
0
39
0
210
0
220
0
230
1
0
LINE
100
AcDbEntity
8
dimensionLayer
62
256
6
ByLayer
5
270
100
AcDbLine
10
620
20
359
30
0
11
620
21
349
31
0
39
0
210
0
220
0
230
1
0
LINE
100
AcDbEntity
8
dimensionLayer
62
256
6
ByLayer
5
271
100
AcDbLine
10
602
20
350.25
30
0
11
609.5
21
350.25
31
0
39
0
210
0
220
0
230
1
0
LINE
100
AcDbEntity
8
dimensionLayer
62
256
6
ByLayer
5
272
100
AcDbLine
10
620
20
350.25
30
0
11
612.5
21
350.25
31
0
39
0
210
0
220
0
230
1
0
LINE
100
AcDbEntity
8
dimensionLayer
62
256
6
ByLayer
5
273
100
AcDbLine
10
602
20
350.25
30
0
11
602.2
21
350.45
31
0
39
0
210
0
220
0
230
1
0
LINE
100
AcDbEntity
8
dimensionLayer
62
256
6
ByLayer
5
274
100
AcDbLine
10
602
20
350.25
30
0
11
602.2
21
350.05
31
0
39
0
210
0
220
0
230
1
0
LINE
100
AcDbEntity
8
dimensionLayer
62
256
6
ByLayer
5
275
100
AcDbLine
10
620
20
350.25
30
0
11
619.8
21
350.45
31
0
39
0
210
0
220
0
230
1
0
LINE
100
AcDbEntity
8
dimensionLayer
62
256
6
ByLayer
5
276
100
AcDbLine
10
620
20
350.25
30
0
11
619.8
21
350.05
31
0
39
0
210
0
220
0
230
1
0
LINE
100
AcDbEntity
8
dimensionLayer
62
256
6
ByLayer
5
277
100
AcDbLine
10
620
20
359
30
0
11
620
21
349
31
0
39
0
210
0
220
0
230
1
0
LINE
100
AcDbEntity
8
dimensionLayer
62
256
6
ByLayer
5
278
100
AcDbLine
10
662
20
359
30
0
11
662
21
349
31
0
39
0
210
0
220
0
230
1
0
LINE
100
AcDbEntity
8
dimensionLayer
62
256
6
ByLayer
5
279
100
AcDbLine
10
620
20
350.25
30
0
11
639.5
21
350.25
31
0
39
0
210
0
220
0
230
1
0
LINE
100
AcDbEntity
8
dimensionLayer
62
256
6
ByLayer
5
27a
100
AcDbLine
10
662
20
350.25
30
0
11
642.5
21
350.25
31
0
39
0
210
0
220
0
230
1
0
LINE
100
AcDbEntity
8
dimensionLayer
62
256
6
ByLayer
5
27b
100
AcDbLine
10
620
20
350.25
30
0
11
620.2
21
350.45
31
0
39
0
210
0
220
0
230
1
0
LINE
100
AcDbEntity
8
dimensionLayer
62
256
6
ByLayer
5
27c
100
AcDbLine
10
620
20
350.25
30
0
11
620.2
21
350.05
31
0
39
0
210
0
220
0
230
1
0
LINE
100
AcDbEntity
8
dimensionLayer
62
256
6
ByLayer
5
27d
100
AcDbLine
10
662
20
350.25
30
0
11
661.8
21
350.45
31
0
39
0
210
0
220
0
230
1
0
LINE
100
AcDbEntity
8
dimensionLayer
62
256
6
ByLayer
5
27e
100
AcDbLine
10
662
20
350.25
30
0
11
661.8
21
350.05
31
0
39
0
210
0
220
0
230
1
0
LINE
100
AcDbEntity
8
dimensionLayer
62
256
6
ByLayer
5
27f
100
AcDbLine
10
662
20
359
30
0
11
662
21
349
31
0
39
0
210
0
220
0
230
1
0
LINE
100
AcDbEntity
8
dimensionLayer
62
256
6
ByLayer
5
280
100
AcDbLine
10
704
20
359
30
0
11
704
21
349
31
0
39
0
210
0
220
0
230
1
0
LINE
100
AcDbEntity
8
dimensionLayer
62
256
6
ByLayer
5
281
100
AcDbLine
10
662
20
350.25
30
0
11
681.5
21
350.25
31
0
39
0
210
0
220
0
230
1
0
LINE
100
AcDbEntity
8
dimensionLayer
62
256
6
ByLayer
5
282
100
AcDbLine
10
704
20
350.25
30
0
11
684.5
21
350.25
31
0
39
0
210
0
220
0
230
1
0
LINE
100
AcDbEntity
8
dimensionLayer
62
256
6
ByLayer
5
283
100
AcDbLine
10
662
20
350.25
30
0
11
662.2
21
350.45
31
0
39
0
210
0
220
0
230
1
0
LINE
100
AcDbEntity
8
dimensionLayer
62
256
6
ByLayer
5
284
100
AcDbLine
10
662
20
350.25
30
0
11
662.2
21
350.05
31
0
39
0
210
0
220
0
230
1
0
LINE
100
AcDbEntity
8
dimensionLayer
62
256
6
ByLayer
5
285
100
AcDbLine
10
704
20
350.25
30
0
11
703.8
21
350.45
31
0
39
0
210
0
220
0
230
1
0
LINE
100
AcDbEntity
8
dimensionLayer
62
256
6
ByLayer
5
286
100
AcDbLine
10
704
20
350.25
30
0
11
703.8
21
350.05
31
0
39
0
210
0
220
0
230
1
0
LINE
100
AcDbEntity
8
dimensionLayer
62
256
6
ByLayer
5
287
100
AcDbLine
10
704
20
359
30
0
11
704
21
349
31
0
39
0
210
0
220
0
230
1
0
LINE
100
AcDbEntity
8
dimensionLayer
62
256
6
ByLayer
5
288
100
AcDbLine
10
746
20
359
30
0
11
746
21
349
31
0
39
0
210
0
220
0
230
1
0
LINE
100
AcDbEntity
8
dimensionLayer
62
256
6
ByLayer
5
289
100
AcDbLine
10
704
20
350.25
30
0
11
723.5
21
350.25
31
0
39
0
210
0
220
0
230
1
0
LINE
100
AcDbEntity
8
dimensionLayer
62
256
6
ByLayer
5
28a
100
AcDbLine
10
746
20
350.25
30
0
11
726.5
21
350.25
31
0
39
0
210
0
220
0
230
1
0
LINE
100
AcDbEntity
8
dimensionLayer
62
256
6
ByLayer
5
28b
100
AcDbLine
10
704
20
350.25
30
0
11
704.2
21
350.45
31
0
39
0
210
0
220
0
230
1
0
LINE
100
AcDbEntity
8
dimensionLayer
62
256
6
ByLayer
5
28c
100
AcDbLine
10
704
20
350.25
30
0
11
704.2
21
350.05
31
0
39
0
210
0
220
0
230
1
0
LINE
100
AcDbEntity
8
dimensionLayer
62
256
6
ByLayer
5
28d
100
AcDbLine
10
746
20
350.25
30
0
11
745.8
21
350.45
31
0
39
0
210
0
220
0
230
1
0
LINE
100
AcDbEntity
8
dimensionLayer
62
256
6
ByLayer
5
28e
100
AcDbLine
10
746
20
350.25
30
0
11
745.8
21
350.05
31
0
39
0
210
0
220
0
230
1
0
LINE
100
AcDbEntity
8
dimensionLayer
62
256
6
ByLayer
5
28f
100
AcDbLine
10
746
20
359
30
0
11
746
21
349
31
0
39
0
210
0
220
0
230
1
0
LINE
100
AcDbEntity
8
dimensionLayer
62
256
6
ByLayer
5
290
100
AcDbLine
10
788
20
359
30
0
11
788
21
349
31
0
39
0
210
0
220
0
230
1
0
LINE
100
AcDbEntity
8
dimensionLayer
62
256
6
ByLayer
5
291
100
AcDbLine
10
746
20
350.25
30
0
11
765.5
21
350.25
31
0
39
0
210
0
220
0
230
1
0
LINE
100
AcDbEntity
8
dimensionLayer
62
256
6
ByLayer
5
292
100
AcDbLine
10
788
20
350.25
30
0
11
768.5
21
350.25
31
0
39
0
210
0
220
0
230
1
0
LINE
100
AcDbEntity
8
dimensionLayer
62
256
6
ByLayer
5
293
100
AcDbLine
10
746
20
350.25
30
0
11
746.2
21
350.45
31
0
39
0
210
0
220
0
230
1
0
LINE
100
AcDbEntity
8
dimensionLayer
62
256
6
ByLayer
5
294
100
AcDbLine
10
746
20
350.25
30
0
11
746.2
21
350.05
31
0
39
0
210
0
220
0
230
1
0
LINE
100
AcDbEntity
8
dimensionLayer
62
256
6
ByLayer
5
295
100
AcDbLine
10
788
20
350.25
30
0
11
787.8
21
350.45
31
0
39
0
210
0
220
0
230
1
0
LINE
100
AcDbEntity
8
dimensionLayer
62
256
6
ByLayer
5
296
100
AcDbLine
10
788
20
350.25
30
0
11
787.8
21
350.05
31
0
39
0
210
0
220
0
230
1
0
LINE
100
AcDbEntity
8
dimensionLayer
62
256
6
ByLayer
5
297
100
AcDbLine
10
602
20
359
30
0
11
602
21
344
31
0
39
0
210
0
220
0
230
1
0
LINE
100
AcDbEntity
8
dimensionLayer
62
256
6
ByLayer
5
298
100
AcDbLine
10
788
20
359
30
0
11
788
21
344
31
0
39
0
210
0
220
0
230
1
0
LINE
100
AcDbEntity
8
dimensionLayer
62
256
6
ByLayer
5
299
100
AcDbLine
10
602
20
345.875
30
0
11
693.5
21
345.875
31
0
39
0
210
0
220
0
230
1
0
LINE
100
AcDbEntity
8
dimensionLayer
62
256
6
ByLayer
5
29a
100
AcDbLine
10
788
20
345.875
30
0
11
696.5
21
345.875
31
0
39
0
210
0
220
0
230
1
0
LINE
100
AcDbEntity
8
dimensionLayer
62
256
6
ByLayer
5
29b
100
AcDbLine
10
602
20
345.875
30
0
11
602.2
21
346.075
31
0
39
0
210
0
220
0
230
1
0
LINE
100
AcDbEntity
8
dimensionLayer
62
256
6
ByLayer
5
29c
100
AcDbLine
10
602
20
345.875
30
0
11
602.2
21
345.675
31
0
39
0
210
0
220
0
230
1
0
LINE
100
AcDbEntity
8
dimensionLayer
62
256
6
ByLayer
5
29d
100
AcDbLine
10
788
20
345.875
30
0
11
787.8
21
346.075
31
0
39
0
210
0
220
0
230
1
0
LINE
100
AcDbEntity
8
dimensionLayer
62
256
6
ByLayer
5
29e
100
AcDbLine
10
788
20
345.875
30
0
11
787.8
21
345.675
31
0
39
0
210
0
220
0
230
1
0
LINE
100
AcDbEntity
8
line
62
256
6
ByLayer
5
29f
100
AcDbLine
10
568
20
387.5
30
0
11
573
21
387.5
31
0
39
0
210
0
220
0
230
1
0
LINE
100
AcDbEntity
8
line
62
256
6
ByLayer
5
2a0
100
AcDbLine
10
568
20
392.5
30
0
11
573
21
392.5
31
0
39
0
210
0
220
0
230
1
0
LINE
100
AcDbEntity
8
line
62
256
6
ByLayer
5
2a1
100
AcDbLine
10
573
20
382.5
30
0
11
578
21
390
31
0
39
0
210
0
220
0
230
1
0
LINE
100
AcDbEntity
8
line
62
256
6
ByLayer
5
2a2
100
AcDbLine
10
573
20
397.5
30
0
11
578
21
390
31
0
39
0
210
0
220
0
230
1
0
LINE
100
AcDbEntity
8
line
62
256
6
ByLayer
5
2a3
100
AcDbLine
10
568
20
387.5
30
0
11
568
21
392.5
31
0
39
0
210
0
220
0
230
1
0
LINE
100
AcDbEntity
8
line
62
256
6
ByLayer
5
2a4
100
AcDbLine
10
573
20
397.5
30
0
11
573
21
382.5
31
0
39
0
210
0
220
0
230
1
0
LINE
100
AcDbEntity
8
line
62
256
6
ByLayer
5
2a5
100
AcDbLine
10
738
20
387.5
30
0
11
743
21
387.5
31
0
39
0
210
0
220
0
230
1
0
LINE
100
AcDbEntity
8
line
62
256
6
ByLayer
5
2a6
100
AcDbLine
10
738
20
392.5
30
0
11
743
21
392.5
31
0
39
0
210
0
220
0
230
1
0
LINE
100
AcDbEntity
8
line
62
256
6
ByLayer
5
2a7
100
AcDbLine
10
743
20
382.5
30
0
11
748
21
390
31
0
39
0
210
0
220
0
230
1
0
LINE
100
AcDbEntity
8
line
62
256
6
ByLayer
5
2a8
100
AcDbLine
10
743
20
397.5
30
0
11
748
21
390
31
0
39
0
210
0
220
0
230
1
0
LINE
100
AcDbEntity
8
line
62
256
6
ByLayer
5
2a9
100
AcDbLine
10
738
20
387.5
30
0
11
738
21
392.5
31
0
39
0
210
0
220
0
230
1
0
LINE
100
AcDbEntity
8
line
62
256
6
ByLayer
5
2aa
100
AcDbLine
10
743
20
397.5
30
0
11
743
21
382.5
31
0
39
0
210
0
220
0
230
1
0
TEXT
100
AcDbEntity
8
text
62
256
6
ByLayer
5
2ad
100
AcDbText
1
CONFIGURATION:                   NOTE:  Assembly drawing for overall dimesions,  actual door size and handle position may vary
10
505
20
495
30
0
40
2
41
1
50
0
51
0
7
True type font
11
505
21
495
31
0
210
0
220
0
230
1
72
0
100
AcDbText
73
3
0
TEXT
100
AcDbEntity
8
text
62
256
6
ByLayer
5
2ae
100
AcDbText
1
baby baby one more time
10
510
20
490
30
0
40
2
41
1
50
0
51
0
7
True type font
11
510
21
490
31
0
210
0
220
0
230
1
72
0
100
AcDbText
73
3
0
TEXT
100
AcDbEntity
8
text
62
256
6
ByLayer
5
2af
100
AcDbText
1
baby baby one more time
10
510
20
485
30
0
40
2
41
1
50
0
51
0
7
True type font
11
510
21
485
31
0
210
0
220
0
230
1
72
0
100
AcDbText
73
3
0
TEXT
100
AcDbEntity
8
text
62
256
6
ByLayer
5
2b0
100
AcDbText
1
baby baby one more time
10
510
20
480
30
0
40
2
41
1
50
0
51
0
7
True type font
11
510
21
480
31
0
210
0
220
0
230
1
72
0
100
AcDbText
73
3
0
TEXT
100
AcDbEntity
8
text
62
256
6
ByLayer
5
2b1
100
AcDbText
1
baby baby one more time
10
510
20
475
30
0
40
2
41
1
50
0
51
0
7
True type font
11
510
21
475
31
0
210
0
220
0
230
1
72
0
100
AcDbText
73
3
0
TEXT
100
AcDbEntity
8
line
62
256
6
ByLayer
5
2b2
100
AcDbText
1
COIL
10
501
20
338.5
30
0
40
2
41
1
50
0
51
0
7
True type font
11
501
21
338.5
31
0
210
0
220
0
230
1
72
0
100
AcDbText
73
3
0
TEXT
100
AcDbEntity
8
line
62
256
6
ByLayer
5
2b3
100
AcDbText
1
CLF
10
531
20
338.5
30
0
40
2
41
1
50
0
51
0
7
True type font
11
531
21
338.5
31
0
210
0
220
0
230
1
72
0
100
AcDbText
73
3
0
TEXT
100
AcDbEntity
8
line
62
256
6
ByLayer
5
2b4
100
AcDbText
1
60
10
555
20
338.5
30
0
40
2
41
1
50
0
51
0
7
True type font
11
555
21
338.5
31
0
210
0
220
0
230
1
72
0
100
AcDbText
73
3
0
TEXT
100
AcDbEntity
8
line
62
256
6
ByLayer
5
2b5
100
AcDbText
1
FILTER
10
501
20
344.5
30
0
40
2
41
1
50
0
51
0
7
True type font
11
501
21
344.5
31
0
210
0
220
0
230
1
72
0
100
AcDbText
73
3
0
TEXT
100
AcDbEntity
8
line
62
256
6
ByLayer
5
2b6
100
AcDbText
1
FTA
10
531
20
344.5
30
0
40
2
41
1
50
0
51
0
7
True type font
11
531
21
344.5
31
0
210
0
220
0
230
1
72
0
100
AcDbText
73
3
0
TEXT
100
AcDbEntity
8
line
62
256
6
ByLayer
5
2b7
100
AcDbText
1
40
10
555
20
344.5
30
0
40
2
41
1
50
0
51
0
7
True type font
11
555
21
344.5
31
0
210
0
220
0
230
1
72
0
100
AcDbText
73
3
0
TEXT
100
AcDbEntity
8
line
62
256
6
ByLayer
5
2b8
100
AcDbText
1
SECTION
10
501
20
350.5
30
0
40
2
41
1
50
0
51
0
7
True type font
11
501
21
350.5
31
0
210
0
220
0
230
1
72
0
100
AcDbText
73
3
0
TEXT
100
AcDbEntity
8
line
62
256
6
ByLayer
5
2b9
100
AcDbText
1
MODULE
10
531
20
350.5
30
0
40
2
41
1
50
0
51
0
7
True type font
11
531
21
350.5
31
0
210
0
220
0
230
1
72
0
100
AcDbText
73
3
0
TEXT
100
AcDbEntity
8
line
62
256
6
ByLayer
5
2ba
100
AcDbText
1
CLEARANCE
10
555
20
350.5
30
0
40
2
41
1
50
0
51
0
7
True type font
11
555
21
350.5
31
0
210
0
220
0
230
1
72
0
100
AcDbText
73
3
0
TEXT
100
AcDbEntity
8
line
62
256
6
ByLayer
5
2bb
100
AcDbText
1
Celebrity 1.0.0
10
501
20
314.5
30
0
40
2
41
1
50
0
51
0
7
True type font
11
501
21
314.5
31
0
210
0
220
0
230
1
72
0
100
AcDbText
73
3
0
TEXT
100
AcDbEntity
8
line
62
256
6
ByLayer
5
2bc
100
AcDbText
1
PREPARER:  preparer
10
577.5
20
314.5
30
0
40
2
41
1
50
0
51
0
7
True type font
11
577.5
21
314.5
31
0
210
0
220
0
230
1
72
0
100
AcDbText
73
0
0
TEXT
100
AcDbEntity
8
line
62
256
6
ByLayer
5
2bd
100
AcDbText
1
ENGINEER:  engineer
10
654
20
314.5
30
0
40
2
41
1
50
0
51
0
7
True type font
11
654
21
314.5
31
0
210
0
220
0
230
1
72
0
100
AcDbText
73
3
0
TEXT
100
AcDbEntity
8
line
62
256
6
ByLayer
5
2be
100
AcDbText
1
SHIP ORDER NO:  shipOrderNo
10
730.5
20
314.5
30
0
40
2
41
1
50
0
51
0
7
True type font
11
730.5
21
314.5
31
0
210
0
220
0
230
1
72
0
100
AcDbText
73
3
0
TEXT
100
AcDbEntity
8
line
62
256
6
ByLayer
5
2bf
100
AcDbText
1
     AAON  COIL  PRODUCTS  inc.
10
501
20
326.5
30
0
40
3
41
1
50
0
51
0
7
True type font
11
501
21
326.5
31
0
210
0
220
0
230
1
72
0
100
AcDbText
73
3
0
TEXT
100
AcDbEntity
8
line
62
256
6
ByLayer
5
2c0
100
AcDbText
1
LONGVIEW  TEXAS
10
501
20
320.5
30
0
40
2
41
1
50
0
51
0
7
True type font
11
501
21
320.5
31
0
210
0
220
0
230
1
72
0
100
AcDbText
73
3
0
TEXT
100
AcDbEntity
8
line
62
256
6
ByLayer
5
2c1
100
AcDbText
1
PURCHASER:  purchaser
10
577.5
20
320.5
30
0
40
2
41
1
50
0
51
0
7
True type font
11
577.5
21
320.5
31
0
210
0
220
0
230
1
72
0
100
AcDbText
73
3
0
TEXT
100
AcDbEntity
8
line
62
256
6
ByLayer
5
2c2
100
AcDbText
1
PURCHASE ORDER:  purchaseOrder
10
654
20
320.5
30
0
40
2
41
1
50
0
51
0
7
True type font
11
654
21
320.5
31
0
210
0
220
0
230
1
72
0
100
AcDbText
73
3
0
TEXT
100
AcDbEntity
8
line
62
256
6
ByLayer
5
2c3
100
AcDbText
1
SERIAL NO:  seriaNo
10
730.5
20
320.5
30
0
40
2
41
1
50
0
51
0
7
True type font
11
730.5
21
320.5
31
0
210
0
220
0
230
1
72
0
100
AcDbText
73
3
0
TEXT
100
AcDbEntity
8
line
62
256
6
ByLayer
5
2c4
100
AcDbText
1
DATE: 2012/7/12
10
768.75
20
320.5
30
0
40
2
41
1
50
0
51
0
7
True type font
11
768.75
21
320.5
31
0
210
0
220
0
230
1
72
0
100
AcDbText
73
3
0
TEXT
100
AcDbEntity
8
line
62
256
6
ByLayer
5
2c5
100
AcDbText
1
JOB NAME:
10
577.5
20
328.5
30
0
40
2
41
1
50
0
51
0
7
True type font
11
577.5
21
328.5
31
0
210
0
220
0
230
1
72
0
100
AcDbText
73
3
0
TEXT
100
AcDbEntity
8
line
62
256
6
ByLayer
5
2c6
100
AcDbText
1
jobname
10
586.5
20
326.5
30
0
40
2
41
1
50
0
51
0
7
True type font
11
586.5
21
326.5
31
0
210
0
220
0
230
1
72
0
100
AcDbText
73
3
0
TEXT
100
AcDbEntity
8
line
62
256
6
ByLayer
5
2c7
100
AcDbText
1
UNIT TAG:
10
730.5
20
328.5
30
0
40
2
41
1
50
0
51
0
7
True type font
11
730.5
21
328.5
31
0
210
0
220
0
230
1
72
0
100
AcDbText
73
3
0
TEXT
100
AcDbEntity
8
line
62
256
6
ByLayer
5
2c8
100
AcDbText
1
unittag
10
749.5
20
326.5
30
0
40
2
41
1
50
0
51
0
7
True type font
11
749.5
21
326.5
31
0
210
0
220
0
230
1
72
0
100
AcDbText
73
3
0
TEXT
100
AcDbEntity
8
dimensionLayer
62
256
6
ByLayer
5
2c9
100
AcDbText
1
2.859985
10
597.625
20
427.77
30
0
40
0.5
41
1
50
0
51
0
7
Standard
11
597.625
21
427.77
31
0
210
0
220
0
230
1
72
0
100
AcDbText
73
0
0
TEXT
100
AcDbEntity
8
dimensionLayer
62
256
6
ByLayer
5
2ca
100
AcDbText
1
5
10
597.625
20
431.7
30
0
40
0.5
41
1
50
0
51
0
7
Standard
11
597.625
21
431.7
31
0
210
0
220
0
230
1
72
0
100
AcDbText
73
0
0
TEXT
100
AcDbEntity
8
dimensionLayer
62
256
6
ByLayer
5
2cb
100
AcDbText
1
40
10
595
20
454.2
30
0
40
0.5
41
1
50
0
51
0
7
Standard
11
595
21
454.2
31
0
210
0
220
0
230
1
72
0
100
AcDbText
73
0
0
TEXT
100
AcDbEntity
8
dimensionLayer
62
256
6
ByLayer
5
2cc
100
AcDbText
1
178
10
690.7
20
488.25
30
0
40
0.5
41
1
50
0
51
0
7
Standard
11
690.7
21
488.25
31
0
210
0
220
0
230
1
72
0
100
AcDbText
73
0
0
TEXT
100
AcDbEntity
8
dimensionLayer
62
256
6
ByLayer
5
2cd
100
AcDbText
1
30
10
784.375
20
454.2
30
0
40
0.5
41
1
50
0
51
0
7
Standard
11
784.375
21
454.2
31
0
210
0
220
0
230
1
72
0
100
AcDbText
73
0
0
TEXT
100
AcDbEntity
8
dimensionLayer
62
256
6
ByLayer
5
2ce
100
AcDbText
1
10
10
784.375
20
434.2
30
0
40
0.5
41
1
50
0
51
0
7
Standard
11
784.375
21
434.2
31
0
210
0
220
0
230
1
72
0
100
AcDbText
73
0
0
TEXT
100
AcDbEntity
8
dimensionLayer
62
256
6
ByLayer
5
2cf
100
AcDbText
1
50
10
788.75
20
454.2
30
0
40
0.5
41
1
50
0
51
0
7
Standard
11
788.75
21
454.2
31
0
210
0
220
0
230
1
72
0
100
AcDbText
73
0
0
TEXT
100
AcDbEntity
8
dimensionLayer
62
256
6
ByLayer
5
2d0
100
AcDbText
1
6
10
788.75
20
426.2
30
0
40
0.5
41
1
50
0
51
0
7
Standard
11
788.75
21
426.2
31
0
210
0
220
0
230
1
72
0
100
AcDbText
73
0
0
TEXT
100
AcDbEntity
8
dimensionLayer
62
256
6
ByLayer
5
2d1
100
AcDbText
1
58.85999
10
792.25
20
452.63
30
0
40
0.5
41
1
50
0
51
0
7
Standard
11
792.25
21
452.63
31
0
210
0
220
0
230
1
72
0
100
AcDbText
73
0
0
TEXT
100
AcDbEntity
8
DoorBarRectangle
62
256
6
ByLayer
5
2d2
100
AcDbText
1
hello
10
608
20
392
30
0
40
1
41
1
50
0
51
0
7
Standard
11
608
21
392
31
0
210
0
220
0
230
1
72
0
100
AcDbText
73
0
0
TEXT
100
AcDbEntity
8
DoorBarRectangle
62
256
6
ByLayer
5
2d3
100
AcDbText
1
world
10
608
20
391
30
0
40
1
41
1
50
0
51
0
7
Standard
11
608
21
391
31
0
210
0
220
0
230
1
72
0
100
AcDbText
73
0
0
TEXT
100
AcDbEntity
8
DoorBarRectangle
62
256
6
ByLayer
5
2d4
100
AcDbText
1
helloworld
10
608
20
390
30
0
40
1
41
1
50
0
51
0
7
Standard
11
608
21
390
31
0
210
0
220
0
230
1
72
0
100
AcDbText
73
0
0
TEXT
100
AcDbEntity
8
line
62
256
6
ByLayer
5
2d5
100
AcDbText
1
A
10
615.9
20
391.055
30
0
40
0.2
41
1
50
0
51
0
7
True type font
11
615.9
21
391.055
31
0
210
0
220
0
230
1
72
0
100
AcDbText
73
3
0
TEXT
100
AcDbEntity
8
line
62
256
6
ByLayer
5
2d6
100
AcDbText
1
A
10
615.9
20
390.825
30
0
40
0.2
41
1
50
0
51
0
7
True type font
11
615.9
21
390.825
31
0
210
0
220
0
230
1
72
0
100
AcDbText
73
3
0
TEXT
100
AcDbEntity
8
line
62
256
6
ByLayer
5
2d7
100
AcDbText
1
O
10
615.9
20
390.595
30
0
40
0.2
41
1
50
0
51
0
7
True type font
11
615.9
21
390.595
31
0
210
0
220
0
230
1
72
0
100
AcDbText
73
3
0
TEXT
100
AcDbEntity
8
line
62
256
6
ByLayer
5
2d8
100
AcDbText
1
N
10
615.9
20
390.365
30
0
40
0.2
41
1
50
0
51
0
7
True type font
11
615.9
21
390.365
31
0
210
0
220
0
230
1
72
0
100
AcDbText
73
3
0
TEXT
100
AcDbEntity
8
line
62
256
6
ByLayer
5
2d9
100
AcDbText
1
A
10
615.9
20
371.055
30
0
40
0.2
41
1
50
0
51
0
7
True type font
11
615.9
21
371.055
31
0
210
0
220
0
230
1
72
0
100
AcDbText
73
3
0
TEXT
100
AcDbEntity
8
line
62
256
6
ByLayer
5
2da
100
AcDbText
1
A
10
615.9
20
370.825
30
0
40
0.2
41
1
50
0
51
0
7
True type font
11
615.9
21
370.825
31
0
210
0
220
0
230
1
72
0
100
AcDbText
73
3
0
TEXT
100
AcDbEntity
8
line
62
256
6
ByLayer
5
2db
100
AcDbText
1
O
10
615.9
20
370.595
30
0
40
0.2
41
1
50
0
51
0
7
True type font
11
615.9
21
370.595
31
0
210
0
220
0
230
1
72
0
100
AcDbText
73
3
0
TEXT
100
AcDbEntity
8
line
62
256
6
ByLayer
5
2dc
100
AcDbText
1
N
10
615.9
20
370.365
30
0
40
0.2
41
1
50
0
51
0
7
True type font
11
615.9
21
370.365
31
0
210
0
220
0
230
1
72
0
100
AcDbText
73
3
0
TEXT
100
AcDbEntity
8
nonDoorBarLayer
62
256
6
ByLayer
5
2dd
100
AcDbText
1
hello
10
634
20
392
30
0
40
1
41
1
50
0
51
0
7
Standard
11
634
21
392
31
0
210
0
220
0
230
1
72
0
100
AcDbText
73
0
0
TEXT
100
AcDbEntity
8
nonDoorBarLayer
62
256
6
ByLayer
5
2de
100
AcDbText
1
world
10
634
20
391
30
0
40
1
41
1
50
0
51
0
7
Standard
11
634
21
391
31
0
210
0
220
0
230
1
72
0
100
AcDbText
73
0
0
TEXT
100
AcDbEntity
8
nonDoorBarLayer
62
256
6
ByLayer
5
2df
100
AcDbText
1
helloworld
10
634
20
390
30
0
40
1
41
1
50
0
51
0
7
Standard
11
634
21
390
31
0
210
0
220
0
230
1
72
0
100
AcDbText
73
0
0
TEXT
100
AcDbEntity
8
DoorBarRectangle
62
256
6
ByLayer
5
2e0
100
AcDbText
1
hello
10
676
20
392
30
0
40
1
41
1
50
0
51
0
7
Standard
11
676
21
392
31
0
210
0
220
0
230
1
72
0
100
AcDbText
73
0
0
TEXT
100
AcDbEntity
8
DoorBarRectangle
62
256
6
ByLayer
5
2e1
100
AcDbText
1
world
10
676
20
391
30
0
40
1
41
1
50
0
51
0
7
Standard
11
676
21
391
31
0
210
0
220
0
230
1
72
0
100
AcDbText
73
0
0
TEXT
100
AcDbEntity
8
DoorBarRectangle
62
256
6
ByLayer
5
2e2
100
AcDbText
1
helloworld
10
676
20
390
30
0
40
1
41
1
50
0
51
0
7
Standard
11
676
21
390
31
0
210
0
220
0
230
1
72
0
100
AcDbText
73
0
0
TEXT
100
AcDbEntity
8
DoorBarRectangle
62
256
6
ByLayer
5
2e3
100
AcDbText
1
hello
10
718
20
392
30
0
40
1
41
1
50
0
51
0
7
Standard
11
718
21
392
31
0
210
0
220
0
230
1
72
0
100
AcDbText
73
0
0
TEXT
100
AcDbEntity
8
DoorBarRectangle
62
256
6
ByLayer
5
2e4
100
AcDbText
1
world
10
718
20
391
30
0
40
1
41
1
50
0
51
0
7
Standard
11
718
21
391
31
0
210
0
220
0
230
1
72
0
100
AcDbText
73
0
0
TEXT
100
AcDbEntity
8
DoorBarRectangle
62
256
6
ByLayer
5
2e5
100
AcDbText
1
helloworld
10
718
20
390
30
0
40
1
41
1
50
0
51
0
7
Standard
11
718
21
390
31
0
210
0
220
0
230
1
72
0
100
AcDbText
73
0
0
TEXT
100
AcDbEntity
8
DoorBarRectangle
62
256
6
ByLayer
5
2e6
100
AcDbText
1
hello
10
760
20
392
30
0
40
1
41
1
50
0
51
0
7
Standard
11
760
21
392
31
0
210
0
220
0
230
1
72
0
100
AcDbText
73
0
0
TEXT
100
AcDbEntity
8
DoorBarRectangle
62
256
6
ByLayer
5
2e7
100
AcDbText
1
world
10
760
20
391
30
0
40
1
41
1
50
0
51
0
7
Standard
11
760
21
391
31
0
210
0
220
0
230
1
72
0
100
AcDbText
73
0
0
TEXT
100
AcDbEntity
8
DoorBarRectangle
62
256
6
ByLayer
5
2e8
100
AcDbText
1
helloworld
10
760
20
390
30
0
40
1
41
1
50
0
51
0
7
Standard
11
760
21
390
31
0
210
0
220
0
230
1
72
0
100
AcDbText
73
0
0
TEXT
100
AcDbEntity
8
dimensionLayer
62
256
6
ByLayer
5
2e9
100
AcDbText
1
6
10
595
20
360.7
30
0
40
0.5
41
1
50
0
51
0
7
Standard
11
595
21
360.7
31
0
210
0
220
0
230
1
72
0
100
AcDbText
73
0
0
TEXT
100
AcDbEntity
8
dimensionLayer
62
256
6
ByLayer
5
2ea
100
AcDbText
1
32
10
595
20
379.7
30
0
40
0.5
41
1
50
0
51
0
7
Standard
11
595
21
379.7
31
0
210
0
220
0
230
1
72
0
100
AcDbText
73
0
0
TEXT
100
AcDbEntity
8
dimensionLayer
62
256
6
ByLayer
5
2eb
100
AcDbText
1
6
10
795
20
354.7
30
0
40
0.5
41
1
50
0
51
0
7
Standard
11
795
21
354.7
31
0
210
0
220
0
230
1
72
0
100
AcDbText
73
0
0
TEXT
100
AcDbEntity
8
dimensionLayer
62
256
6
ByLayer
5
2ec
100
AcDbText
1
11
10
795
20
363.2
30
0
40
0.5
41
1
50
0
51
0
7
Standard
11
795
21
363.2
31
0
210
0
220
0
230
1
72
0
100
AcDbText
73
0
0
TEXT
100
AcDbEntity
8
dimensionLayer
62
256
6
ByLayer
5
2ed
100
AcDbText
1
22
10
795
20
379.7
30
0
40
0.5
41
1
50
0
51
0
7
Standard
11
795
21
379.7
31
0
210
0
220
0
230
1
72
0
100
AcDbText
73
0
0
TEXT
100
AcDbEntity
8
dimensionLayer
62
256
6
ByLayer
5
2ee
100
AcDbText
1
44
10
801.125
20
379.7
30
0
40
0.5
41
1
50
0
51
0
7
Standard
11
801.125
21
379.7
31
0
210
0
220
0
230
1
72
0
100
AcDbText
73
0
0
TEXT
100
AcDbEntity
8
dimensionLayer
62
256
6
ByLayer
5
2ef
100
AcDbText
1
50
10
808.125
20
376.7
30
0
40
0.5
41
1
50
0
51
0
7
Standard
11
808.125
21
376.7
31
0
210
0
220
0
230
1
72
0
100
AcDbText
73
0
0
TEXT
100
AcDbEntity
8
dimensionLayer
62
256
6
ByLayer
5
2f0
100
AcDbText
1
18
10
609.7
20
350.25
30
0
40
0.5
41
1
50
0
51
0
7
Standard
11
609.7
21
350.25
31
0
210
0
220
0
230
1
72
0
100
AcDbText
73
0
0
TEXT
100
AcDbEntity
8
dimensionLayer
62
256
6
ByLayer
5
2f1
100
AcDbText
1
42
10
639.7
20
350.25
30
0
40
0.5
41
1
50
0
51
0
7
Standard
11
639.7
21
350.25
31
0
210
0
220
0
230
1
72
0
100
AcDbText
73
0
0
TEXT
100
AcDbEntity
8
dimensionLayer
62
256
6
ByLayer
5
2f2
100
AcDbText
1
42
10
681.7
20
350.25
30
0
40
0.5
41
1
50
0
51
0
7
Standard
11
681.7
21
350.25
31
0
210
0
220
0
230
1
72
0
100
AcDbText
73
0
0
TEXT
100
AcDbEntity
8
dimensionLayer
62
256
6
ByLayer
5
2f3
100
AcDbText
1
42
10
723.7
20
350.25
30
0
40
0.5
41
1
50
0
51
0
7
Standard
11
723.7
21
350.25
31
0
210
0
220
0
230
1
72
0
100
AcDbText
73
0
0
TEXT
100
AcDbEntity
8
dimensionLayer
62
256
6
ByLayer
5
2f4
100
AcDbText
1
42
10
765.7
20
350.25
30
0
40
0.5
41
1
50
0
51
0
7
Standard
11
765.7
21
350.25
31
0
210
0
220
0
230
1
72
0
100
AcDbText
73
0
0
TEXT
100
AcDbEntity
8
dimensionLayer
62
256
6
ByLayer
5
2f5
100
AcDbText
1
186
10
693.7
20
345.875
30
0
40
0.5
41
1
50
0
51
0
7
Standard
11
693.7
21
345.875
31
0
210
0
220
0
230
1
72
0
100
AcDbText
73
0
0
ENDSEC
0
SECTION
2
OBJECTS
0
DICTIONARY
5
a
100
AcDbDictionary
281
1
3
ACAD_GROUP
350
b
0
DICTIONARY
5
b
100
AcDbDictionary
281
1
0
ENDSEC
0
EOF
